<svg width="171" height="171" viewBox="0 0 171 171" fill="none" xmlns="http://www.w3.org/2000/svg">
<path d="M171 85.5C171 132.721 132.721 171 85.5 171C38.279 171 0 132.721 0 85.5C0 38.279 38.279 0 85.5 0C132.721 0 171 38.279 171 85.5Z" fill="#4A7AFF"/>
<path d="M89.2516 170.913C134.731 168.949 171 131.462 171 85.5C171 85.1673 170.99 84.836 170.986 84.5033L111.638 25.1532L48.1807 91.4804L83.4382 126.738L67.1812 148.842L89.2516 170.913Z" fill="#0053BF"/>
<path d="M111.636 25.1533V44.5139C111.636 44.5139 89.4074 41.2876 89.4074 55.628V69.9685H109.484L106.975 91.8379H89.4074V148.842H67.1791V91.8379L48.1772 91.4791V69.9685H66.8204V53.4767C66.8204 53.4767 65.5901 28.9432 89.7661 24.437C99.8052 22.5649 111.636 25.1533 111.636 25.1533V25.1533Z" fill="white"/>
<path d="M111.64 44.5139V25.1533C111.64 25.1533 99.8094 22.5649 89.7703 24.437C88.2021 24.7292 86.7435 25.1076 85.3828 25.5551V148.842H89.4115V91.8379H106.978L109.488 69.9685H89.4115C89.4115 69.9685 89.4115 69.9685 89.4115 55.628C89.4115 41.2876 111.64 44.5139 111.64 44.5139Z" fill="#DCE1EB"/>
</svg>
