<svg width="215" height="215" viewBox="0 0 215 215" fill="none" xmlns="http://www.w3.org/2000/svg">
<g clip-path="url(#clip0)">
<path d="M107.5 215C166.871 215 215 166.871 215 107.5C215 48.1295 166.871 0 107.5 0C48.1295 0 0 48.1295 0 107.5C0 166.871 48.1295 215 107.5 215Z" fill="#D42428"/>
<path d="M183.511 31.4744C225.493 73.4595 225.496 141.527 183.511 183.512C141.53 225.494 73.4582 225.496 31.4731 183.512L183.511 31.4744Z" fill="#CC202D"/>
<path d="M212.84 129.031L159.635 75.827L96.8844 82.9716L58.9277 141.734L129.853 212.657C171.552 203.836 204.336 170.851 212.84 129.031Z" fill="#BA202E"/>
<path d="M163.757 86.7556C163.757 77.7438 156.456 70.4395 147.449 70.4395H70.94C61.935 70.4395 54.6357 77.7456 54.6357 86.7556V130.508C54.6357 139.519 61.9364 146.824 70.94 146.824H147.448C156.457 146.824 163.756 139.518 163.756 130.508V86.7556H163.757ZM98.2808 127.089V85.9953L129.444 106.543L98.2808 127.089Z" fill="white"/>
</g>
<defs>
<clipPath id="clip0">
<rect width="215" height="215" fill="white"/>
</clipPath>
</defs>
</svg>
