<?xml version="1.0" encoding="utf-8"?><svg xmlns="http://www.w3.org/2000/svg" xmlns:xlink="http://www.w3.org/1999/xlink"><symbol viewBox="0 0 22 24" id="basket" xmlns="http://www.w3.org/2000/svg"><g clip-path="url(#aaa)"><path d="M10.363 18.443a2.046 2.046 0 00-2.045 2.042 2.046 2.046 0 004.09 0 2.046 2.046 0 00-2.045-2.042zm6.134 0a2.046 2.046 0 00-2.045 2.042 2.046 2.046 0 004.089 0 2.046 2.046 0 00-2.044-2.042zm3.978-8.199L7.413 6.891a.614.614 0 00-.75.73L8.67 16.4h-.786L5.482 5.895a.613.613 0 00-.474-.464l-4.27-.882A.614.614 0 00.489 5.75l3.885.802L6.797 17.15a.613.613 0 00.598.477h12.07a.615.615 0 00.607-.53l.858-6.175a.613.613 0 00-.455-.678zm-8.14 3.91a.613.613 0 01-1.227 0v-2.696a.613.613 0 011.227 0v2.696zm2.625 0a.613.613 0 01-1.227 0v-1.88a.613.613 0 011.227 0v1.88zm2.625 0a.613.613 0 01-1.227 0v-1.226a.613.613 0 011.227 0v1.226z"/></g><path fill-rule="evenodd" clip-rule="evenodd" d="M16.268 4.568a2.996 2.996 0 00-1.693-.523c-.627 0-1.21.193-1.693.523-.28-.843-.492-1.752-.492-2.383C12.39.98 13.37 0 14.575 0s2.185.98 2.185 2.185c0 .631-.212 1.54-.492 2.383zm-4.722 2.274l.024.006v-.011l-.024.005zm4.972 1.217c-1.333-.33-2.766-.681-4.129-1.013a2.185 2.185 0 114.129 1.013zm4.436 1.103c-.866-.217-2.155-.538-3.618-.9a2.995 2.995 0 00.243-1.425c.87.18 1.762.45 2.308.765.596.344.969.928 1.067 1.56zM9.869 6.439c-.36-.086-.706-.167-1.03-.243a2.19 2.19 0 01-.376-2.667 2.188 2.188 0 013.147-.7c.098.738.338 1.599.61 2.353a3.01 3.01 0 00-.449.774c-.628.113-1.305.278-1.902.483zm10.124.075a3.43 3.43 0 01-.217.114c-.696-.295-1.587-.526-2.397-.672a3.01 3.01 0 00-.449-.774c.262-.727.494-1.553.599-2.273.095-.067.189-.128.278-.18a2.188 2.188 0 012.986.8 2.188 2.188 0 01-.8 2.985z"/><defs><clipPath id="aaa"><path transform="translate(0 3.064)" d="M0 0h20.936v20.936H0z"/></clipPath></defs></symbol><symbol viewBox="0 0 13 13" id="call" xmlns="http://www.w3.org/2000/svg"><g clip-path="url(#aba)"><path d="M12.422 9.792l-2.53-1.676a.742.742 0 00-.988.16l-.737.94a.316.316 0 01-.404.085l-.14-.076c-.465-.252-1.043-.565-2.208-1.723C4.25 6.344 3.934 5.769 3.68 5.308l-.077-.14a.312.312 0 01.084-.402l.947-.732a.731.731 0 00.16-.983L3.107.537a.737.737 0 00-.99-.221L1.059.947a1.484 1.484 0 00-.68.878c-.382 1.38-.095 3.76 3.434 7.266 2.807 2.79 4.897 3.54 6.334 3.54.33 0 .66-.042.979-.128a1.49 1.49 0 00.883-.676l.636-1.05a.727.727 0 00-.223-.985zm-.136.772l-.634 1.052c-.14.238-.368.413-.636.489-1.281.35-3.52.06-6.908-3.307C.72 5.432.428 3.208.78 1.934c.076-.266.253-.492.493-.632l1.058-.63a.32.32 0 01.43.096l.917 1.367.769 1.146a.317.317 0 01-.07.427l-.947.732a.721.721 0 00-.193.93l.075.135c.266.485.597 1.089 1.806 2.29 1.208 1.2 1.815 1.529 2.303 1.793l.137.075a.732.732 0 00.936-.192l.737-.941c.103-.13.29-.16.429-.07l2.53 1.677a.315.315 0 01.096.427zM7.333 2.281c1.955.002 3.54 1.576 3.541 3.519 0 .114.094.207.209.207a.208.208 0 00.208-.207c-.002-2.171-1.773-3.93-3.958-3.933a.208.208 0 00-.208.207c0 .114.093.207.208.207z"/><path d="M7.333 3.523a2.287 2.287 0 012.292 2.276c0 .115.093.207.208.207a.208.208 0 00.208-.207 2.702 2.702 0 00-2.708-2.69.208.208 0 00-.208.207c0 .114.093.207.208.207z"/><path d="M7.333 4.765c.575 0 1.041.463 1.042 1.034 0 .115.093.207.208.207a.208.208 0 00.208-.207c0-.8-.653-1.448-1.458-1.448a.208.208 0 00-.208.207c0 .114.093.207.208.207z"/></g><defs><clipPath id="aba"><path transform="translate(.25 .21)" d="M0 0h12.5v12.42H0z"/></clipPath></defs></symbol><symbol viewBox="0 0 61 60" id="catalog-icon-1" xmlns="http://www.w3.org/2000/svg"><path d="M48.675 47.25c1.075-1.725 1.7-3.8 1.7-6 0-6.25-5-11.25-11.225-11.25S27.9 35 27.9 41.25s5 11.25 11.25 11.25c2.175 0 4.225-.625 5.95-1.7l7.8 7.675L56.375 55l-7.7-7.75zm-9.525.25c-3.475 0-6.25-2.8-6.25-6.25S35.675 35 39.15 35s6.225 2.8 6.225 6.25S42.6 47.5 39.15 47.5zM55.5 35h-1.375c-.825-2.025-2.075-3.825-3.625-5.35V25h5v10zm-5-25H43V5h7.5a5 5 0 015 5v7.5h-5V10zm-15 0h-10V5h10v5zm-25-5H18v5h-7.5v7.5h-5V10a5 5 0 015-5zm20 50h-5v-5c1.25 2.05 3 3.75 5 5zm-20-5H18v5h-7.5a5 5 0 01-5-5v-7.5h5V50zm0-15h-5V25h5v10z"/></symbol><symbol viewBox="0 0 61 60" id="catalog-icon-2" xmlns="http://www.w3.org/2000/svg"><path d="M25.5 10c-5.5 0-10 4.5-10 10s4.5 10 10 10 10-4.5 10-10-4.5-10-10-10zm0 15c-2.75 0-5-2.25-5-5s2.25-5 5-5 5 2.25 5 5-2.25 5-5 5zm32.25 28L47.5 42.75c1-2.5.5-5.75-1.75-7.75-2.25-2.25-5.5-2.75-8.25-1.5l4.75 4.75-3.5 3.5-5-5c-1.25 2.75-.75 6 1.5 8.5C37.5 47.5 40.5 48 43 47l10.25 10.25c.5.5 1.25.5 1.5 0l2.5-2.5c.75-.75.75-1.5.5-1.75zm-34.5-15.5C23 38.25 23 39.25 23 40c0 1.75.25 3.5.75 5H10.5v-2.5c0-1.25 4.5-4.5 12.75-5zm2.25-5c-11 0-20 4.5-20 10V50H33c-3-2.25-5-6-5-10 0-2.75.75-5.25 2.25-7.25-1.5 0-3-.25-4.75-.25z"/></symbol><symbol viewBox="0 0 61 60" id="catalog-icon-3" xmlns="http://www.w3.org/2000/svg"><path d="M30.5 7.5L3 22.5l10 5.45v15l17.5 9.55L48 42.95v-15l5-2.725V42.5h5v-20l-27.5-15zm17.05 15L30.5 31.8l-17.05-9.3 17.05-9.3 17.05 9.3zM43 40l-12.5 6.8L18 40v-9.325L30.5 37.5 43 30.675V40z"/></symbol><symbol viewBox="0 0 61 60" id="catalog-icon-4" xmlns="http://www.w3.org/2000/svg"><path d="M33 17.5h-5v5h5v-5zm0 10h-5v15h5v-15zm10-25H18c-2.75 0-5 2.25-5 5v45c0 2.75 2.25 5 5 5h25c2.75 0 5-2.25 5-5v-45c0-2.75-2.25-5-5-5zm0 45H18v-35h25v35z"/></symbol><symbol viewBox="0 0 344.96 344.96" id="check" xmlns="http://www.w3.org/2000/svg"><g data-name="Слой 2"><path class="agcls-1" d="M321.85 86.24l-40-23.11-23.1-40H212.5L172.48 0l-40 23.11H86.24l-23.11 40-40 23.1v46.21L0 172.48l23.11 40v46.21l40 23.11 23.11 40h46.21l40 23.1 40-23.11h46.21l23.11-40 40-23.11V212.5l23.11-40-23.11-40V86.24zM156.91 243.07a16.79 16.79 0 01-23.34 0l-50.45-50.44a16.19 16.19 0 010-22.89l13.35-13.35a16.19 16.19 0 0122.89 0l25.87 25.87 80.34-80.35a16.19 16.19 0 0122.89 0l13.35 13.35a16.19 16.19 0 010 22.89z" data-name="Capa 1"/></g></symbol><symbol class="ahsvg-inline--fa ahfa-times ahfa-w-11" viewBox="0 0 352 512" id="close" xmlns="http://www.w3.org/2000/svg"><path d="M242.72 256l100.07-100.07c12.28-12.28 12.28-32.19 0-44.48l-22.24-22.24c-12.28-12.28-32.19-12.28-44.48 0L176 189.28 75.93 89.21c-12.28-12.28-32.19-12.28-44.48 0L9.21 111.45c-12.28 12.28-12.28 32.19 0 44.48L109.28 256 9.21 356.07c-12.28 12.28-12.28 32.19 0 44.48l22.24 22.24c12.28 12.28 32.2 12.28 44.48 0L176 322.72l100.07 100.07c12.28 12.28 32.2 12.28 44.48 0l22.24-22.24c12.28-12.28 12.28-32.19 0-44.48L242.72 256z"/></symbol><symbol viewBox="0 0 7 3" id="icon-down" xmlns="http://www.w3.org/2000/svg"><path d="M3.5 3L.469 0H6.53L3.5 3z"/></symbol><symbol viewBox="0 0 24 24" id="instagram" xmlns="http://www.w3.org/2000/svg"><path d="M11.999 7.377a4.624 4.624 0 100 9.248 4.624 4.624 0 000-9.248zm0 7.627a3.004 3.004 0 110-6.008 3.004 3.004 0 010 6.008zm4.807-6.719a1.078 1.078 0 100-2.156 1.078 1.078 0 000 2.156z"/><path d="M20.533 6.11A4.605 4.605 0 0017.9 3.48a6.607 6.607 0 00-2.186-.42c-.963-.042-1.268-.054-3.71-.054s-2.755 0-3.71.054a6.554 6.554 0 00-2.184.42 4.6 4.6 0 00-2.633 2.63 6.585 6.585 0 00-.419 2.186c-.043.962-.056 1.267-.056 3.71 0 2.442 0 2.753.056 3.71.015.748.156 1.486.419 2.187a4.61 4.61 0 002.634 2.632 6.583 6.583 0 002.185.45c.963.042 1.268.055 3.71.055s2.755 0 3.71-.055a6.616 6.616 0 002.186-.42 4.613 4.613 0 002.633-2.632c.263-.7.404-1.438.419-2.186.043-.962.056-1.267.056-3.71s0-2.753-.056-3.71a6.583 6.583 0 00-.421-2.217zm-1.218 9.533a5.046 5.046 0 01-.311 1.688 2.987 2.987 0 01-1.712 1.71c-.535.2-1.1.305-1.67.312-.95.044-1.218.055-3.654.055-2.438 0-2.687 0-3.655-.055a4.961 4.961 0 01-1.67-.311 2.984 2.984 0 01-1.718-1.711 5.08 5.08 0 01-.311-1.67c-.043-.95-.053-1.217-.053-3.653 0-2.437 0-2.686.053-3.655a5.038 5.038 0 01.311-1.687c.305-.79.93-1.41 1.719-1.712a5.01 5.01 0 011.669-.311c.95-.043 1.218-.055 3.655-.055s2.687 0 3.654.055a4.96 4.96 0 011.67.31 2.99 2.99 0 011.712 1.713 5.06 5.06 0 01.311 1.669c.043.95.054 1.218.054 3.655 0 2.436 0 2.698-.043 3.654h-.011v-.001z"/></symbol><symbol viewBox="0 0 18 13" id="list-icon" xmlns="http://www.w3.org/2000/svg"><path d="M6.5 13L.845 7.343l2.12-2.121 3.537 3.535L14.986.272l2.122 2.121L6.5 13zM2.966 6.636l-.707.707L6.5 11.586l9.192-9.193-.707-.707L6.5 10.172 2.965 6.636z"/></symbol><symbol viewBox="0 0 24 24" id="location" xmlns="http://www.w3.org/2000/svg"><path d="M12 6.5a2.5 2.5 0 110 5 2.5 2.5 0 010-5zM12 2a7 7 0 017 7c0 5.25-7 13-7 13S5 14.25 5 9a7 7 0 017-7zm0 2a5 5 0 00-5 5c0 1 0 3 5 9.71C17 12 17 10 17 9a5 5 0 00-5-5z"/></symbol><symbol viewBox="0 0 65 65" id="mail" xmlns="http://www.w3.org/2000/svg"><g clip-path="url(#ama)"><path d="M65 25.114c0-.457-.21-.888-.573-1.168 0 0-3.632-2.817-8.337-6.51v-5.618a5.915 5.915 0 00-5.909-5.909h-8.558c-2.105-1.72-3.931-3.239-5.151-4.32C35.297.55 33.898 0 32.5 0c-1.4 0-2.8.55-3.971 1.588-1.22 1.082-3.047 2.602-5.153 4.321h-8.65a5.915 5.915 0 00-5.91 5.91v5.69C4.16 21.165.574 23.945.573 23.947c-.362.279-.572.71-.573 1.167V59.09C0 62.35 2.65 65 5.91 65h53.18c3.259 0 5.91-2.65 5.91-5.91V25.115zm-8.91-3.923c2.088 1.635 3.859 3.015 5.024 3.921a1883.04 1883.04 0 00-5.024 3.914V21.19zM30.49 3.8c1.267-1.122 2.754-1.124 4.024.001a118.73 118.73 0 002.466 2.108h-8.957a117.55 117.55 0 002.467-2.11zm-18.717 8.018a2.958 2.958 0 012.954-2.954h35.455a2.958 2.958 0 012.955 2.954v19.523c-6.606 5.188-14.87 11.763-18.624 15.085-.356.316-1.099.847-2.058.847-.701 0-1.378-.285-2.013-.847-3.793-3.359-12.076-9.958-18.669-15.144V11.818zm-2.954 9.446v7.698a1839.724 1839.724 0 00-4.931-3.848c1.145-.893 2.884-2.248 4.93-3.85zM62.045 59.09a2.958 2.958 0 01-2.954 2.954H5.909a2.958 2.958 0 01-2.954-2.954V28.13c6.161 4.796 20.417 15.982 25.527 20.509 1.175 1.039 2.548 1.588 3.972 1.588 1.434 0 2.86-.564 4.018-1.588 5.31-4.703 19.85-16.061 25.573-20.51V59.09z"/><path d="M19.205 17.727h26.544a1.476 1.476 0 100-2.954H19.205a1.477 1.477 0 100 2.954zm28.022 7.386c0-.816-.661-1.477-1.478-1.477H19.205a1.477 1.477 0 100 2.955h26.544c.817 0 1.478-.66 1.478-1.478zm-5.91 8.864c0-.816-.66-1.477-1.477-1.477H25.067a1.476 1.476 0 100 2.955H39.84c.817 0 1.477-.661 1.477-1.478z"/></g><defs><clipPath id="ama"><path d="M0 0h65v65H0z"/></clipPath></defs></symbol><symbol viewBox="0 0 28 28" id="mail-contact" xmlns="http://www.w3.org/2000/svg"><path d="M14 18c1.08 0 2-.4 2.813-1.187.786-.813 1.186-1.733 1.186-2.813s-.4-2-1.186-2.813C15.999 10.4 15.079 10 13.999 10s-2 .4-2.813 1.187C10.399 12 9.999 12.92 9.999 14s.4 2 1.187 2.813C11.999 17.6 12.919 18 13.999 18zM14 .667C17.665.667 20.8 2 23.4 4.6c2.6 2.6 3.933 5.733 3.933 9.4v1.933a4.844 4.844 0 01-1.334 3.4c-.933.894-2 1.334-3.333 1.334-1.6 0-2.92-.667-3.92-2-1.333 1.333-2.907 2-4.747 2-1.826 0-3.4-.667-4.72-1.947C8 17.4 7.333 15.84 7.333 14c0-1.827.666-3.4 1.946-4.72C10.6 8 12.173 7.333 14 7.333c1.84 0 3.4.667 4.72 1.947C20 10.6 20.666 12.173 20.666 14v1.933c0 .547.213 1.027.613 1.44.4.413.867.627 1.387.627.56 0 1.027-.213 1.427-.627.4-.413.573-.893.573-1.44V14c0-2.92-1.027-5.427-3.133-7.534-2.107-2.106-4.614-3.133-7.534-3.133S8.573 4.36 6.466 6.466C4.359 8.573 3.333 11.08 3.333 14s1.026 5.427 3.133 7.533c2.107 2.107 4.613 3.133 7.533 3.133h6.667v2.667h-6.667c-3.666 0-6.8-1.333-9.4-3.933C2 20.8.666 17.667.666 14c0-3.667 1.333-6.8 3.933-9.4C7.2 2 10.333.667 14 .667z"/></symbol><symbol viewBox="0 0 75 75" id="numIcon-1" xmlns="http://www.w3.org/2000/svg"><path d="M73.901 72.803H65.04V57.77c5.584-.618 9.96-5.9 9.96-12.301 0-6.297-4.234-11.507-9.687-12.265a10.284 10.284 0 002.118-4.79 1.099 1.099 0 00-2.17-.346 8.138 8.138 0 01-5.254 6.343 1.997 1.997 0 00-1.276 1.491c-.205 1.058-.949 3.647-3.439 4.839-2.148 1.028-4.256.398-5.062.08a6.705 6.705 0 01-2.825-2.143V33.93l4.8-4.8a1.099 1.099 0 00-1.554-1.553l-3.246 3.245V23.55a1.098 1.098 0 10-2.197 0v5.165l-3.246-3.246a1.099 1.099 0 00-1.554 1.554l4.8 4.8v6.856a6.723 6.723 0 01-2.825 2.142c-.807.32-2.914.95-5.063-.079-1.04-.498-1.88-1.292-2.503-2.354.19-4.856-1.213-11.952-3.3-18.753.284-.154.578-.293.879-.412a2.296 2.296 0 001.448-2.408 4.826 4.826 0 013.636-5.275 2.333 2.333 0 001.766-2.282c0-3.893 3.168-7.06 7.06-7.06 3.893 0 7.06 3.167 7.06 7.071a2.33 2.33 0 001.766 2.271 4.836 4.836 0 013.637 5.272 2.299 2.299 0 001.447 2.41 8.166 8.166 0 014.55 4.494 1.098 1.098 0 102.034-.83 10.373 10.373 0 00-5.779-5.708c-.044-.017-.076-.062-.07-.102.44-3.55-1.879-6.823-5.29-7.669-.056-.014-.098-.073-.098-.15C55.563 4.153 51.411 0 46.307 0c-5.105 0-9.258 4.152-9.258 9.268 0 .065-.042.124-.097.138a7.019 7.019 0 00-5.29 7.67c.023.191-.677.349-.83.44a73.912 73.912 0 00-.847-2.378C25.274 2.625 20.55 0 17.417 0 11.95 0 7.77 7.703 5.224 14.166a1.099 1.099 0 002.045.805c3.196-8.118 6.896-12.774 10.148-12.774 3.398 0 7.23 4.999 10.511 13.715 3.092 8.21 4.71 17.078 4.71 21.595 0 9.037-6.24 16.462-14.122 17.098V41.488l4.585-4.586a1.099 1.099 0 00-1.554-1.553l-3.03 3.03v-4.593a1.098 1.098 0 10-2.198 0v9.25l-3.031-3.03a1.099 1.099 0 00-1.554 1.553l4.585 4.585v8.461C8.437 53.97 2.197 46.544 2.197 37.507c0-4.245 1.366-11.4 3.398-17.803a1.099 1.099 0 00-2.094-.665C1.374 25.74 0 32.99 0 37.507c0 10.255 7.225 18.67 16.319 19.301v15.995H1.099a1.099 1.099 0 100 2.197H73.9a1.098 1.098 0 100-2.197zm-28.694 0h-26.69V56.808c7.898-.549 14.386-6.97 15.955-15.367a7.76 7.76 0 001.899 1.282c2.929 1.402 5.745.565 6.82.14a8.706 8.706 0 002.016-1.132v31.072zm17.635 0H47.405V41.732c.568.425 1.234.82 2.016 1.131a9.31 9.31 0 003.347.638c.084 0 .113 1.304.113 1.968 0 6.403 4.376 11.683 9.96 12.302v15.032zM63.94 44.71c-.606 0-1.098.492-1.098 1.099v9.745c-4.37-.623-7.764-4.907-7.764-10.085 0-.806.083-1.602.246-2.376 3.364-1.126 5.295-5.07 5.54-6.656a10.37 10.37 0 002.093-1.07c5.335-.688 9.846 4.157 9.846 10.102 0 5.178-3.394 9.462-7.764 10.085v-3.25l3.474-3.474a1.099 1.099 0 00-1.554-1.553l-1.92 1.92v-3.388c0-.607-.492-1.099-1.099-1.099z"/></symbol><symbol viewBox="0 0 75 75" id="numIcon-2" xmlns="http://www.w3.org/2000/svg"><path d="M15 19.589c-4.142 0-7.5-3.308-7.5-7.388 0-4.081 3.358-7.388 7.5-7.388 4.142 0 7.5 3.307 7.5 7.388-.004 4.078-3.36 7.383-7.5 7.388zm0-12.314c-2.761 0-5 2.205-5 4.926 0 2.72 2.239 4.925 5 4.925 2.762 0 5-2.205 5-4.925 0-2.721-2.238-4.926-5-4.926zm30 46.792v7.388H31.25V44.559l-7.5-2.463V29.44H35c3.45-.005 6.246-2.759 6.25-6.157V20.82h-35C2.8 20.824.004 23.578 0 26.977v13.545c0 2.04 1.68 3.694 3.75 3.694h2.5V66.38H0V75h2.5v-6.157H20V75h2.5V63.918H45V75h2.5V56.53h25V75H75V54.067H45zM6.25 28.208v13.545h-2.5a1.24 1.24 0 01-1.25-1.231V26.977c0-2.041 1.679-3.694 3.75-3.694h32.5c0 2.04-1.68 3.694-3.75 3.694H21.25v16.895l7.5 2.463v15.12H25V48.288L12.5 43.67v22.71H8.75V28.208h-2.5zM20 61.455v4.925h-5V47.224l7.5 2.77v11.461H20z"/><path d="M55 50.373h10V19.589h7.238L60 0 47.763 19.589H55v30.784zm-2.762-33.247L60 4.7l7.763 12.427H62.5V47.91h-5V17.126h-5.262z"/></symbol><symbol viewBox="0 0 75 75" id="numIcon-3" xmlns="http://www.w3.org/2000/svg"><g clip-path="url(#aqa)"><path d="M17.5 20C7.835 20 0 27.835 0 37.5S7.835 55 17.5 55 35 47.165 35 37.5c-.01-9.66-7.84-17.49-17.5-17.5zm0 32.5c-8.284 0-15-6.716-15-15 0-8.284 6.716-15 15-15 8.284 0 15 6.716 15 15-.009 8.28-6.72 14.991-15 15z"/><path d="M13.75 35a3.75 3.75 0 10-7.5 0 3.75 3.75 0 007.5 0zM10 36.25a1.25 1.25 0 110-2.5 1.25 1.25 0 010 2.5zm15-5a3.75 3.75 0 100 7.5 3.75 3.75 0 000-7.5zm0 5a1.25 1.25 0 110-2.5 1.25 1.25 0 010 2.5zm-.855 5.065a1.247 1.247 0 00-1.58.79A4.23 4.23 0 0118.547 45h-2.094a4.23 4.23 0 01-4.018-2.895 1.25 1.25 0 10-2.37.79 6.725 6.725 0 006.388 4.605h2.094a6.725 6.725 0 006.388-4.605 1.25 1.25 0 00-.79-1.58zM71.25 20h-27.5A3.754 3.754 0 0040 23.75v27.5A3.754 3.754 0 0043.75 55h27.5A3.754 3.754 0 0075 51.25v-27.5A3.754 3.754 0 0071.25 20zm1.25 31.25c0 .69-.56 1.25-1.25 1.25h-27.5c-.69 0-1.25-.56-1.25-1.25v-27.5c0-.69.56-1.25 1.25-1.25h27.5c.69 0 1.25.56 1.25 1.25v27.5z"/><path d="M68.429 25.698a3.75 3.75 0 00-5.23.873l-10.27 14.376-1.928-1.446a3.75 3.75 0 10-4.501 5.998l4.999 3.75a3.75 3.75 0 005.302-.82l12.5-17.5a3.754 3.754 0 00-.872-5.23zm-1.16 3.778l-12.5 17.5a1.25 1.25 0 01-1.77.274L48 43.5a1.234 1.234 0 01-.487-.822A1.251 1.251 0 0149.5 41.5l2.953 2.214a1.248 1.248 0 001.766-.273l11.013-15.418a1.25 1.25 0 012.036 1.453z"/></g><defs><clipPath id="aqa"><path d="M0 0h75v75H0z"/></clipPath></defs></symbol><symbol viewBox="0 0 75 75" id="numIcon-4" xmlns="http://www.w3.org/2000/svg"><path d="M43.96 22.92a5.966 5.966 0 10-11.931-.03 5.966 5.966 0 0011.931.03zm-5.966 4.194a4.193 4.193 0 114.208-4.193 4.205 4.205 0 01-4.208 4.193zM18.598 37.661a4.12 4.12 0 104.13 4.12 4.128 4.128 0 00-4.13-4.12zm0 6.481a2.361 2.361 0 112.371-2.362 2.369 2.369 0 01-2.371 2.363v-.001zm26.086 1.178a3.53 3.53 0 103.538 3.53 3.538 3.538 0 00-3.538-3.53zm0 5.302a1.772 1.772 0 11.015-3.544 1.772 1.772 0 01-.015 3.544zm18.795-17.324a3.531 3.531 0 10-3.539-3.53 3.538 3.538 0 003.539 3.53zm0-5.303a1.772 1.772 0 11-.016 3.545 1.772 1.772 0 01.016-3.545z"/><path d="M66.041 36.701l2.318-3.09a6.122 6.122 0 001.252-4.079c-.21-3.199-2.83-5.704-5.965-5.704-3.136 0-5.755 2.505-5.965 5.703a5.857 5.857 0 00.267 2.148l-14.497.266 2.237-2.984a9.78 9.78 0 002.003-6.518 9.912 9.912 0 00-2.867-6.358 9.4 9.4 0 00-13.297 0 9.91 9.91 0 00-2.867 6.356c-.15 2.234.56 4.546 2.002 6.519l1.935 2.579-20.6.136a.879.879 0 00-.826.594L1.512 60.507a.879.879 0 00.832 1.163h70.312a.878.878 0 00.839-1.141L66.041 36.7zm-6.606-7.054c.13-1.997 1.74-4.062 4.21-4.062 2.47 0 4.08 2.066 4.21 4.064a4.365 4.365 0 01-.902 2.907l-3.308 4.409-3.301-4.4a4.484 4.484 0 01-.909-2.918zm-.636 3.773c.044.064.088.128.133.19l4.011 5.348a.878.878 0 001.406 0l.393-.523.999 3.194-13.628.003-.987-8.07 7.673-.142zm-26.724-5.506c-1.193-1.63-1.782-3.533-1.66-5.357a8.154 8.154 0 012.357-5.23 7.641 7.641 0 0110.808 0 8.156 8.156 0 012.359 5.233 8.026 8.026 0 01-1.655 5.345l-6.108 8.14-6.1-8.131zM3.573 59.912L8.14 46.564l5.199-.016 4.761 6.347a.879.879 0 001.407 0l3.793-5.058.047 12.075H3.573zm19.428-14.606l-4.199 5.597-4.193-5.589c-.824-1.128-1.232-2.438-1.148-3.694.165-2.53 2.208-5.146 5.341-5.146s5.176 2.616 5.341 5.149a5.532 5.532 0 01-1.142 3.683zm13.853 5.392a.878.878 0 00-.262.627l.005 8.587H25.104l-.055-14.559a7.158 7.158 0 00.85-3.847c-.249-3.808-3.366-6.79-7.096-6.79s-6.846 2.982-7.095 6.788a7.11 7.11 0 00.592 3.29l-3.558.01 3.891-11.375 21.278-.14 3.563 4.749a.88.88 0 001.406 0l3.234-4.311 7.245-.133 1.104 9.023a.88.88 0 00.873.772l14.955-.003 2.205 7.05-17.854.03c.156-.604.215-1.23.173-1.852-.208-3.199-2.828-5.704-5.964-5.704-3.136 0-5.756 2.505-5.965 5.703a5.78 5.78 0 00.183 1.856l-1.585-.023a.855.855 0 00-.63.252zm11.305.94l-3.308 4.409-3.302-4.4a4.483 4.483 0 01-.909-2.918c.13-1.997 1.741-4.061 4.21-4.061 2.47 0 4.081 2.065 4.212 4.063a4.368 4.368 0 01-.903 2.907zm-9.805 8.274l-.004-7.696 1.481.022c.096.154.197.306.306.454l4.01 5.347a.878.878 0 001.407 0l4.01-5.345c.115-.152.222-.309.322-.469l19.16-.032 2.414 7.72H38.354z"/></symbol><symbol viewBox="0 0 14 18" id="phone" xmlns="http://www.w3.org/2000/svg"><path d="M1.643 5.572C1.403 4 2.513 2.587 4.206 2.07a1.235 1.235 0 011.518.748l.544 1.45a1.25 1.25 0 01-.325 1.36l-1.618 1.48a.626.626 0 00-.19.588l.015.065.039.163c.201.79.508 1.548.911 2.256.44.752.985 1.437 1.62 2.034l.05.045a.624.624 0 00.603.128l2.09-.658a1.25 1.25 0 011.34.399l.99 1.2c.413.5.363 1.236-.11 1.677-1.297 1.209-3.08 1.456-4.32.46a15.915 15.915 0 01-3.78-4.411 15.54 15.54 0 01-1.942-5.482h.002zM5.446 7.78l1.34-1.23a2.5 2.5 0 00.652-2.72l-.543-1.45A2.485 2.485 0 003.841.875C1.738 1.519.05 3.405.406 5.761c.25 1.645.827 3.738 2.098 5.923A17.165 17.165 0 006.58 16.44c1.86 1.494 4.343.984 5.955-.519a2.476 2.476 0 00.224-3.385l-.99-1.202a2.5 2.5 0 00-2.68-.795l-1.736.546a8.255 8.255 0 01-1.17-1.529 7.835 7.835 0 01-.738-1.776v-.001z"/></symbol><symbol viewBox="0 0 27 28" id="planet" xmlns="http://www.w3.org/2000/svg"><path d="M19.313 16.666c.106-.88.186-1.76.186-2.666 0-.907-.08-1.787-.186-2.667h4.506c.214.854.347 1.747.347 2.667 0 .92-.133 1.813-.347 2.666h-4.506zm-2.36 7.414c.8-1.48 1.413-3.08 1.84-4.747h3.933a10.707 10.707 0 01-5.773 4.747zm-.334-7.413h-6.24c-.133-.88-.213-1.76-.213-2.667 0-.907.08-1.8.213-2.667h6.24c.12.867.214 1.76.214 2.667 0 .906-.094 1.787-.214 2.666zm-3.12 7.946c-1.106-1.6-2-3.373-2.546-5.28h5.093c-.547 1.907-1.44 3.68-2.547 5.28zM8.166 8.666H4.273a10.564 10.564 0 015.76-4.746c-.8 1.48-1.4 3.08-1.867 4.746zM4.273 19.334h3.893C8.633 21 9.233 22.6 10.033 24.08a10.677 10.677 0 01-5.76-4.747zm-1.094-2.666A10.99 10.99 0 012.833 14c0-.92.133-1.813.346-2.667h4.507A22.02 22.02 0 007.499 14c0 .906.08 1.787.187 2.666H3.179zM13.5 3.372c1.107 1.6 2 3.387 2.547 5.293h-5.093c.546-1.906 1.44-3.693 2.546-5.293zm9.227 5.293h-3.933a20.87 20.87 0 00-1.84-4.746 10.65 10.65 0 015.773 4.746zm-9.227-8C6.126.667.166 6.667.166 14A13.333 13.333 0 1013.499.667z"/></symbol><symbol viewBox="0 0 16 16" id="plus" xmlns="http://www.w3.org/2000/svg"><path d="M7.557.899v14.873m-7.5-7.437h15"/></symbol><symbol viewBox="0 0 15 15" id="search" xmlns="http://www.w3.org/2000/svg"><path d="M14.52 13.663L10.95 9.95a6.037 6.037 0 001.422-3.894A6.063 6.063 0 006.316 0 6.063 6.063 0 00.259 6.056a6.063 6.063 0 006.057 6.057 5.991 5.991 0 003.47-1.096l3.596 3.74c.15.157.353.243.57.243a.79.79 0 00.57-1.337zM6.317 1.58a4.481 4.481 0 014.476 4.476 4.481 4.481 0 01-4.476 4.477A4.481 4.481 0 011.84 6.056 4.481 4.481 0 016.316 1.58z"/></symbol><symbol viewBox="0 0 50 50" id="service-1" xmlns="http://www.w3.org/2000/svg"><path d="M47.537 46.853h-7.554V36.325c.145.017.291.027.438.027a3.828 3.828 0 003.821-3.821v-.037a3.823 3.823 0 002.684-5.884 3.819 3.819 0 00-.397-6.037 3.817 3.817 0 00-1.868-4.672 3.824 3.824 0 00-3.068-4.403 3.821 3.821 0 00-7.638-.006 3.72 3.72 0 00-.645.188c.06-.293.09-.591.09-.89a4.554 4.554 0 00-3.849-4.493 4.55 4.55 0 10-9.101-.005 4.557 4.557 0 00-3.848 4.497c0 .3.03.598.09.89a3.713 3.713 0 00-.645-.185 3.821 3.821 0 00-7.638 0 3.829 3.829 0 00-3.125 3.758c0 .218.02.436.057.65a3.817 3.817 0 00-1.87 4.671 3.82 3.82 0 00-.397 6.037 3.823 3.823 0 002.684 5.884v.037a3.828 3.828 0 003.822 3.822c.146-.001.292-.01.437-.028v10.528H2.464a.684.684 0 000 1.367h45.073a.684.684 0 100-1.367zM35.196 12.559a.686.686 0 00.156-.549 2.399 2.399 0 01-.033-.377 2.454 2.454 0 014.909 0 2.399 2.399 0 01-.033.377.69.69 0 00.17.547.708.708 0 00.531.238 2.447 2.447 0 012.309 3.281.682.682 0 00.442.885 2.45 2.45 0 011.406 3.565.683.683 0 00.32.967 2.452 2.452 0 01.23 4.39.684.684 0 00-.146 1.08 2.454 2.454 0 01-1.727 4.197c-.067 0-.133-.005-.198-.01a.683.683 0 00-.72.833 2.452 2.452 0 01-4.46 1.861.684.684 0 00-1.155 0 2.447 2.447 0 01-4.476-.86c.06-.297.092-.6.092-.903 0-.062 0-.124-.005-.186a4.55 4.55 0 003.26-7.138 4.546 4.546 0 00-.47-7.346 4.552 4.552 0 00-.82-4.624.71.71 0 00.418-.228zm-6.934 24.072a4.546 4.546 0 003.72-1.938 3.84 3.84 0 003.145 1.66c.146-.001.292-.01.437-.028v10.528h-8V36.572c.23.037.464.057.698.059zM18.125 12.397a.685.685 0 00.033-.537 3.175 3.175 0 012.96-4.255.72.72 0 00.586-.236.685.685 0 00.156-.55 3.138 3.138 0 01-.042-.489 3.184 3.184 0 016.367 0 3.114 3.114 0 01-.042.489.691.691 0 00.172.549.717.717 0 00.535.238 3.175 3.175 0 012.994 4.254.683.683 0 00.442.884 3.178 3.178 0 011.822 4.623.683.683 0 00.32.968 3.18 3.18 0 01.299 5.692.685.685 0 00-.145 1.081 3.182 3.182 0 01-2.24 5.443c-.087 0-.172-.006-.257-.013a.682.682 0 00-.721.834 3.18 3.18 0 01-5.785 2.413.683.683 0 00-1.154 0 3.178 3.178 0 01-5.785-2.413.684.684 0 00-.72-.834 3.182 3.182 0 01-2.497-5.43.684.684 0 00-.15-1.08 3.18 3.18 0 01.297-5.693.685.685 0 00.32-.968 3.18 3.18 0 011.824-4.623.682.682 0 00.411-.347zm-3.251 23.956a3.84 3.84 0 003.145-1.66 4.486 4.486 0 004.418 1.879v10.28h-8V36.326c.145.017.29.027.437.027zM7.126 32.53c0-.184.022-.368.063-.547a.683.683 0 00-.72-.833c-.066.005-.131.01-.198.01a2.454 2.454 0 01-1.728-4.197.684.684 0 00-.145-1.081 2.453 2.453 0 01.229-4.39.684.684 0 00.32-.967 2.45 2.45 0 011.407-3.565.684.684 0 00.443-.884 2.448 2.448 0 012.275-3.282.716.716 0 00.578-.236.684.684 0 00.157-.55 2.398 2.398 0 01-.033-.377 2.454 2.454 0 014.908 0 2.398 2.398 0 01-.033.378.69.69 0 00.17.546c.107.12.252.2.41.226a4.552 4.552 0 00-.824 4.626 4.546 4.546 0 00-.47 7.346 4.55 4.55 0 003.258 7.14 4.554 4.554 0 00.086 1.089 2.447 2.447 0 01-4.475.86.684.684 0 00-1.154 0 2.453 2.453 0 01-4.524-1.314v.002zm4.257 14.322V35.899c.308-.165.592-.371.844-.613.251.242.535.448.842.613v10.954h-1.686zm12.42 0v-10.72c.445-.226.85-.524 1.197-.882a4.53 4.53 0 001.197.882v10.721l-2.394-.001zm13.127 0V35.899c.308-.165.592-.371.844-.613.251.242.534.448.842.613v10.954H36.93z"/><path d="M28.145 12.95a.684.684 0 001.302.418 2.113 2.113 0 00-.63-2.34.684.684 0 00-.935.998.768.768 0 01.263.924zm1.325 14.93h-.003a.684.684 0 00-.681.686c.003.686-.067.76-.4 1.118a.684.684 0 001 .932c.57-.611.771-1.016.767-2.056a.683.683 0 00-.684-.68zm-.01-12.613a.683.683 0 00.184.95c.01.006.974.684 1.071 1.642a2.725 2.725 0 01-.742 2.103.683.683 0 00.937.995 4.126 4.126 0 001.163-3.236c-.163-1.602-1.604-2.595-1.665-2.637a.683.683 0 00-.947.183z"/></symbol><symbol viewBox="0 0 50 50" id="service-2" xmlns="http://www.w3.org/2000/svg"><path d="M27.605 28.415l13.602 13.602a.73.73 0 001.035 0 .732.732 0 000-1.036L28.64 27.38a.732.732 0 10-1.035 1.036zM15.963 15.737a.732.732 0 000 1.036l3.674 3.674a.73.73 0 001.036 0 .732.732 0 000-1.036l-3.674-3.674a.732.732 0 00-1.036 0z"/><path d="M24.626 28.505L36.423 15.45l.878.788c.253.227.57.338.886.338.362 0 .724-.147.985-.436l.232-.257.826.746-.328.362c-.358.396-.54.908-.513 1.44.027.533.26 1.024.656 1.381l1.988 1.797a1.981 1.981 0 001.44.512 1.984 1.984 0 001.38-.655l4.414-4.885a2 2 0 00-.143-2.82l-1.988-1.797a1.987 1.987 0 00-1.44-.513 1.984 1.984 0 00-1.326.597l-.826-.746.298-.33a1.329 1.329 0 00-.094-1.875l-6.61-5.98C35.344 1.497 33.004.477 30.55.245c-2.448-.23-4.748.34-6.478 1.605a1.326 1.326 0 00.575 2.383c5.006.796 6.366 2.409 6.718 3.065.356.664.333 1.416-.07 2.298-.182.398-.155.845.051 1.208L19.52 23.892a1.523 1.523 0 00-1.883.3l-.877.97a1.522 1.522 0 00-.1 1.915l-3.055 2.16-.014.01a23.317 23.317 0 00-3.401 3.088l-8.757 9.692a4.709 4.709 0 00.336 6.643 4.669 4.669 0 003.391 1.208 4.67 4.67 0 003.252-1.544l8.758-9.693a23.31 23.31 0 002.728-3.695l.008-.014 1.841-3.258a1.504 1.504 0 00.844.205 1.51 1.51 0 001.05-.498l.878-.972c.272-.3.41-.69.39-1.095a1.508 1.508 0 00-.283-.809zm-1.064-1.007l-2.931-2.65 11.76-13.015 2.941 2.639-11.77 13.026zM45.77 12.915a.53.53 0 01.384.136l1.988 1.797a.532.532 0 01.038.751l-4.413 4.885a.53.53 0 01-.751.038l-1.99-1.797a.532.532 0 01-.037-.751l4.413-4.885a.528.528 0 01.368-.174zm-2.383.22l-2.175 2.407-.826-.745 2.176-2.408.825.745zM25.212 2.841c3.047-1.987 7.876-1.41 10.944 1.361l6.507 5.888-4.486 4.965-5.508-4.943c.556-1.273.553-2.453-.013-3.507-1.257-2.344-5.065-3.353-7.444-3.764zm-6.577 31.361a21.847 21.847 0 01-2.552 3.456L7.325 47.35a3.218 3.218 0 01-2.239 1.064 3.218 3.218 0 01-2.335-.832 3.217 3.217 0 01-1.063-2.239 3.217 3.217 0 01.831-2.335l8.758-9.692a21.87 21.87 0 013.18-2.888l3.29-2.327 2.87 2.593-1.982 3.508zm4.797-4.776l-.878.971a.05.05 0 01-.037.018.06.06 0 01-.039-.014l-4.627-4.18a.054.054 0 01-.004-.077l.877-.971a.054.054 0 01.077-.004l4.627 4.181a.05.05 0 01.018.037.05.05 0 01-.014.04z"/><path d="M3.293 16.201c1.903 1.54 4.471 2.18 7.044 1.754a3.369 3.369 0 012.92.96l3.43 3.43a.73.73 0 001.036 0 .733.733 0 000-1.036l-3.43-3.43a4.838 4.838 0 00-4.195-1.37c-2.16.358-4.305-.169-5.884-1.447A7.42 7.42 0 011.468 9.08l4.417 3.574a2.878 2.878 0 004.044-.427l2.03-2.507a2.858 2.858 0 00.623-2.11 2.856 2.856 0 00-1.05-1.934L7.113 2.1a7.391 7.391 0 016.643 1.62c1.612 1.407 2.485 3.552 2.396 5.886a4.96 4.96 0 001.421 3.69l4.478 4.478a.733.733 0 001.036-1.036L18.61 12.26a3.486 3.486 0 01-.993-2.597c.106-2.778-.95-5.346-2.896-7.046A8.852 8.852 0 006.393.777a1.293 1.293 0 00-.91.991c-.095.476.08.962.457 1.267l4.67 3.778c.293.237.476.574.516.95a1.4 1.4 0 01-.307 1.035l-2.028 2.507a1.412 1.412 0 01-1.984.21l-4.67-3.779a1.298 1.298 0 00-2.113.913 8.886 8.886 0 003.269 7.553zM48.758 42.41L31.055 24.705a.733.733 0 00-1.035 1.036l17.703 17.703a2.784 2.784 0 010 3.932 2.783 2.783 0 01-3.931 0l-16.69-16.689a.733.733 0 00-1.036 1.036l16.69 16.69a4.23 4.23 0 003 1.24 4.232 4.232 0 003.002-1.242 4.25 4.25 0 000-6.003z"/></symbol><symbol viewBox="0 0 65 65" id="tel" xmlns="http://www.w3.org/2000/svg"><g clip-path="url(#aya)"><path d="M51.37 40.265c-1.33-1.385-2.935-2.126-4.636-2.126-1.688 0-3.306.727-4.692 2.112l-4.335 4.322c-.357-.192-.714-.37-1.057-.549-.493-.247-.96-.48-1.358-.727-4.06-2.58-7.75-5.94-11.29-10.289-1.715-2.168-2.867-3.992-3.704-5.844 1.125-1.029 2.167-2.1 3.183-3.128.384-.384.768-.782 1.152-1.166 2.88-2.881 2.88-6.613 0-9.493L20.888 9.63a54.052 54.052 0 01-1.276-1.303 64.775 64.775 0 00-2.58-2.552c-1.33-1.317-2.921-2.016-4.595-2.016s-3.293.7-4.664 2.016l-.028.028-4.664 4.705C1.325 12.265.323 14.405.104 16.89c-.33 4.005.85 7.737 1.756 10.179 2.222 5.995 5.542 11.551 10.495 17.505 6.008 7.175 13.238 12.84 21.497 16.833 3.155 1.495 7.367 3.265 12.072 3.567.288.013.59.027.864.027 3.17 0 5.831-1.139 7.916-3.402.014-.028.041-.041.055-.069.713-.864 1.537-1.646 2.4-2.483a54.093 54.093 0 001.784-1.77c1.358-1.413 2.072-3.059 2.072-4.746 0-1.701-.727-3.334-2.113-4.706l-7.531-7.559zm4.912 14.446c-.014 0-.014.014 0 0-.535.576-1.084 1.098-1.674 1.674-.891.85-1.797 1.742-2.647 2.743-1.386 1.482-3.019 2.182-5.159 2.182-.206 0-.425 0-.63-.014-4.075-.26-7.862-1.852-10.701-3.21-7.765-3.76-14.583-9.096-20.25-15.859-4.677-5.638-7.805-10.851-9.877-16.449-1.275-3.416-1.742-6.077-1.536-8.588.137-1.605.754-2.935 1.893-4.074l4.678-4.678c.672-.631 1.386-.974 2.085-.974.865 0 1.564.521 2.003.96l.041.041a69.157 69.157 0 012.47 2.456c.425.439.864.878 1.303 1.33l3.745 3.746c1.454 1.454 1.454 2.799 0 4.253-.398.398-.782.795-1.18 1.18-1.152 1.18-2.25 2.277-3.443 3.347-.027.027-.055.041-.069.068-1.18 1.18-.96 2.333-.713 3.114l.041.124c.974 2.36 2.346 4.582 4.431 7.23l.014.014c3.787 4.664 7.779 8.3 12.182 11.084.563.357 1.139.645 1.688.92.494.246.96.48 1.358.726.055.028.11.069.164.096.467.234.906.343 1.359.343 1.138 0 1.852-.713 2.085-.946l4.692-4.692c.466-.466 1.207-1.029 2.071-1.029.85 0 1.55.535 1.976 1.002l.027.027 7.56 7.559c1.412 1.4 1.412 2.84.013 4.294zM35.127 15.462c3.595.603 6.86 2.305 9.466 4.911a17.488 17.488 0 014.912 9.466 1.84 1.84 0 001.824 1.537c.11 0 .206-.014.316-.028a1.854 1.854 0 001.523-2.14c-.741-4.349-2.8-8.314-5.94-11.455-3.142-3.142-7.107-5.2-11.456-5.94a1.862 1.862 0 00-2.14 1.509c-.178 1.001.48 1.975 1.495 2.14zm29.798 13.211c-1.221-7.161-4.596-13.677-9.782-18.863C49.958 4.624 43.441 1.25 36.28.028c-1.001-.178-1.948.508-2.126 1.51a1.861 1.861 0 001.522 2.14C42.07 4.76 47.9 7.793 52.536 12.416c4.638 4.637 7.656 10.468 8.74 16.86a1.84 1.84 0 001.824 1.537c.11 0 .206-.014.316-.027a1.818 1.818 0 001.509-2.113z"/></g><defs><clipPath id="aya"><path d="M0 0h65v65H0z"/></clipPath></defs></symbol><symbol viewBox="0 0 16 16" id="telegram" xmlns="http://www.w3.org/2000/svg"><path d="M14.629 3.698l-2.012 9.618c-.152.679-.548.848-1.11.528l-3.066-2.29-1.48 1.442c-.163.166-.3.305-.616.305l.22-3.165 5.683-5.204c.247-.223-.054-.347-.384-.123L4.839 9.29l-3.024-.959c-.658-.208-.67-.667.137-.986L13.78 2.727c.548-.208 1.027.124.849.971z"/></symbol><symbol viewBox="0 0 16 16" id="viber" xmlns="http://www.w3.org/2000/svg"><path d="M8 1.335c-1.071.013-3.374.19-4.662 1.37-.958.948-1.292 2.35-1.331 4.084-.033 1.728-.072 4.973 3.058 5.856v1.346s-.02.538.337.648c.438.14.688-.275 1.105-.72l.778-.879c2.142.178 3.782-.232 3.97-.293.435-.139 2.883-.451 3.283-3.696.41-3.351-.2-5.463-1.301-6.418h-.007c-.332-.306-1.668-1.279-4.652-1.29 0 0-.222-.014-.578-.008zm.037.942a7.02 7.02 0 01.488.011c2.527.007 3.732.767 4.017 1.023.927.794 1.405 2.697 1.055 5.495-.332 2.713-2.317 2.885-2.685 3.002-.156.05-1.6.406-3.42.289 0 0-1.356 1.634-1.78 2.055-.067.074-.146.095-.196.085-.071-.018-.093-.107-.089-.229l.013-2.233c-2.655-.733-2.498-3.5-2.47-4.946.033-1.446.304-2.628 1.113-3.43 1.088-.982 3.043-1.115 3.953-1.122zm.2 1.446a.166.166 0 100 .332 3.136 3.136 0 012.242.883c.606.588.9 1.378.912 2.411 0 .092.074.167.167.167V7.51a.167.167 0 00.168-.165 3.588 3.588 0 00-1.009-2.646c-.66-.645-1.496-.977-2.48-.977zm-2.198.382a.523.523 0 00-.342.067H5.69a2.61 2.61 0 00-.637.523 1.003 1.003 0 00-.256.525.71.71 0 00.026.302l.01.006c.172.504.396.988.67 1.444a8.48 8.48 0 001.29 1.762l.015.022.024.017.015.018.017.015c.532.505 1.127.94 1.769 1.295.734.4 1.18.588 1.447.667v.004c.078.024.15.034.221.034.228-.016.444-.109.613-.262a2.53 2.53 0 00.517-.638v-.004c.128-.241.085-.469-.1-.623-.37-.323-.77-.61-1.195-.857-.285-.155-.574-.061-.69.095l-.25.315c-.129.156-.361.134-.361.134l-.007.004C7.093 8.527 6.63 6.772 6.63 6.772s-.022-.239.139-.36l.312-.252c.15-.122.254-.41.094-.695a7.498 7.498 0 00-.856-1.194.475.475 0 00-.28-.167zm2.486.495c-.221 0-.221.334.003.334A2.098 2.098 0 0110 5.572 1.94 1.94 0 0110.5 7a.168.168 0 00.167.165l.007.009a.169.169 0 00.167-.167c.015-.662-.191-1.218-.595-1.663C9.84 4.9 9.273 4.65 8.549 4.6h-.024zm.274.898c-.228-.006-.236.335-.01.341.55.029.816.306.851.877a.166.166 0 00.165.163h.007a.168.168 0 00.16-.178c-.039-.744-.445-1.164-1.166-1.202H8.8z"/></symbol><symbol viewBox="0 0 24 24" id="vk" xmlns="http://www.w3.org/2000/svg"><path d="M21.579 6.855c.14-.465 0-.806-.662-.806h-2.193c-.558 0-.813.295-.953.619 0 0-1.115 2.719-2.695 4.482-.51.513-.743.675-1.021.675-.139 0-.341-.162-.341-.627V6.855c0-.558-.161-.806-.626-.806H9.642c-.348 0-.558.258-.558.504 0 .528.79.65.871 2.138v3.228c0 .707-.127.836-.407.836-.743 0-2.551-2.73-3.624-5.853-.209-.607-.42-.852-.98-.852H2.752c-.627 0-.752.295-.752.619 0 .582.743 3.462 3.461 7.27 1.812 2.602 4.363 4.012 6.687 4.012 1.393 0 1.565-.313 1.565-.853v-1.966c0-.626.133-.752.574-.752.324 0 .882.164 2.183 1.417 1.486 1.486 1.732 2.153 2.567 2.153h2.192c.626 0 .939-.313.759-.931-.197-.615-.907-1.51-1.849-2.57-.512-.603-1.277-1.253-1.51-1.578-.325-.42-.231-.604 0-.976.001 0 2.672-3.761 2.95-5.04z"/></symbol><symbol viewBox="0 0 16 16" id="whatsapp" xmlns="http://www.w3.org/2000/svg"><path fill-rule="evenodd" clip-rule="evenodd" d="M12.269 3.755A5.947 5.947 0 008.035 2 5.994 5.994 0 002.05 7.985a5.98 5.98 0 00.799 2.992L2 14.077l3.173-.832c.877.477 1.86.728 2.86.728h.002a5.993 5.993 0 005.533-8.276 5.953 5.953 0 00-1.3-1.942zm-4.234 9.208h-.002c-.89 0-1.765-.24-2.532-.694l-.181-.108-1.883.494.502-1.835-.118-.188a4.965 4.965 0 01-.76-2.647 4.982 4.982 0 016.88-4.597c.604.25 1.152.618 1.613 1.081a4.946 4.946 0 011.455 3.52 4.982 4.982 0 01-4.974 4.974zm2.729-3.726c-.15-.075-.885-.436-1.022-.486-.137-.05-.236-.075-.336.074-.1.15-.387.486-.474.586-.087.1-.175.112-.324.038-.15-.075-.631-.233-1.203-.742a4.505 4.505 0 01-.832-1.036c-.087-.15-.009-.231.066-.306.068-.066.15-.174.224-.262.075-.087.1-.149.15-.249.05-.1.025-.187-.013-.262-.037-.075-.337-.811-.461-1.11-.121-.29-.244-.252-.336-.256a6.418 6.418 0 00-.286-.005.55.55 0 00-.4.186c-.137.15-.523.512-.523 1.248s.536 1.447.61 1.547c.075.1 1.055 1.61 2.555 2.258.358.154.636.246.853.315.358.114.684.098.942.06.287-.043.885-.362 1.01-.711.124-.35.124-.649.087-.711-.038-.063-.138-.101-.287-.176z"/></symbol><symbol viewBox="0 0 50 36" id="youtube" xmlns="http://www.w3.org/2000/svg"><path d="M48.051 3.427c-1.805-2.146-5.137-3.02-11.5-3.02H13.448c-6.51 0-9.898.93-11.696 3.215C0 5.849 0 9.13 0 13.672v8.656c0 8.799 2.08 13.266 13.45 13.266h23.1c5.519 0 8.577-.772 10.556-2.666C49.133 30.987 50 27.817 50 22.328v-8.656c0-4.79-.136-8.09-1.949-10.245zm-15.95 15.768l-10.49 5.483a1.613 1.613 0 01-2.36-1.43v-10.93a1.613 1.613 0 012.355-1.431l10.49 5.447a1.613 1.613 0 01.004 2.861z"/></symbol></svg>