<svg width="13" height="13" viewBox="0 0 13 13" fill="none" xmlns="http://www.w3.org/2000/svg">
<g clip-path="url(#clip0_388:56)">
<path d="M12.4225 9.79229L9.89243 8.11585C9.57136 7.90482 9.14098 7.97425 8.90361 8.27542L8.16664 9.21691C8.07193 9.341 7.89976 9.37699 7.76274 9.30136L7.62256 9.22458C7.15783 8.97289 6.5796 8.65955 5.41456 7.50157C4.24952 6.34358 3.93353 5.76861 3.68022 5.30771L3.60335 5.16842C3.52619 5.03231 3.56173 4.86052 3.68666 4.76566L4.63359 4.03362C4.93658 3.79775 5.00656 3.37025 4.79441 3.05114L3.10716 0.537305C2.88974 0.212349 2.45352 0.114799 2.11693 0.315841L1.05895 0.947295C0.726533 1.14147 0.482648 1.45595 0.37844 1.82483C-0.00253373 3.20406 0.284069 5.5844 3.81314 9.09128C6.62043 11.8804 8.71033 12.6304 10.1468 12.6304C10.4774 12.6318 10.8067 12.5891 11.1258 12.5034C11.4972 12.3999 11.8137 12.1576 12.009 11.8272L12.6452 10.7766C12.8478 10.4421 12.7497 10.0084 12.4225 9.79229ZM12.2862 10.5643L11.6515 11.6155C11.5113 11.8539 11.2836 12.0293 11.0162 12.1047C9.73474 12.4543 7.49591 12.1648 4.10787 8.79843C0.71982 5.43209 0.428433 3.2078 0.78026 1.93434C0.856323 1.66832 1.03301 1.44181 1.2733 1.30225L2.33127 0.671624C2.47732 0.584309 2.66665 0.626632 2.761 0.767646L3.67754 2.13487L4.44681 3.28126C4.53893 3.41968 4.50866 3.6052 4.37724 3.70763L3.43009 4.43966C3.14185 4.65865 3.05954 5.05489 3.237 5.36937L3.31221 5.50514C3.57843 5.99027 3.90941 6.59379 5.11778 7.79422C6.32614 8.99462 6.93335 9.32351 7.42139 9.588L7.55823 9.66292C7.87472 9.83922 8.27353 9.75746 8.49393 9.47107L9.23069 8.52999C9.3338 8.39948 9.52044 8.36943 9.6598 8.46086L12.1896 10.1373C12.3316 10.231 12.3742 10.4192 12.2862 10.5643Z" fill="#FFF1EB"/>
<path d="M7.33329 2.28111C9.28811 2.28327 10.8722 3.85728 10.8744 5.79957C10.8744 5.91388 10.9677 6.00653 11.0827 6.00653C11.1978 6.00653 11.291 5.91388 11.291 5.79957C11.2886 3.62876 9.5181 1.86956 7.33329 1.86719C7.21825 1.86719 7.125 1.95984 7.125 2.07415C7.125 2.18846 7.21825 2.28111 7.33329 2.28111Z" fill="#FFF1EB"/>
<path d="M7.33329 3.52281C8.59815 3.52429 9.62314 4.54271 9.62463 5.79946C9.62463 5.91377 9.7179 6.00642 9.83292 6.00642C9.94797 6.00642 10.0412 5.91377 10.0412 5.79946C10.0395 4.31419 8.82812 3.11058 7.33329 3.10889C7.21825 3.10889 7.125 3.20154 7.125 3.31585C7.125 3.43016 7.21825 3.52281 7.33329 3.52281Z" fill="#FFF1EB"/>
<path d="M7.33329 4.76452C7.90821 4.7652 8.37411 5.22813 8.37481 5.79941C8.37481 5.91372 8.46809 6.00638 8.58311 6.00638C8.69813 6.00638 8.7914 5.91372 8.7914 5.79941C8.79048 4.99963 8.1382 4.35148 7.33329 4.35059C7.21825 4.35059 7.125 4.44324 7.125 4.55755C7.125 4.67187 7.21825 4.76452 7.33329 4.76452Z" fill="#FFF1EB"/>
</g>
<defs>
<clipPath id="clip0_388:56">
<rect width="12.5" height="12.4199" fill="white" transform="translate(0.25 0.209961)"/>
</clipPath>
</defs>
</svg>
