<svg width="61" height="60" viewBox="0 0 61 60" fill="none" xmlns="http://www.w3.org/2000/svg">
<path d="M25.5 10C20 10 15.5 14.5 15.5 20C15.5 25.5 20 30 25.5 30C31 30 35.5 25.5 35.5 20C35.5 14.5 31 10 25.5 10ZM25.5 25C22.75 25 20.5 22.75 20.5 20C20.5 17.25 22.75 15 25.5 15C28.25 15 30.5 17.25 30.5 20C30.5 22.75 28.25 25 25.5 25ZM57.75 53L47.5 42.75C48.5 40.25 48 37 45.75 35C43.5 32.75 40.25 32.25 37.5 33.5L42.25 38.25L38.75 41.75L33.75 36.75C32.5 39.5 33 42.75 35.25 45.25C37.5 47.5 40.5 48 43 47L53.25 57.25C53.75 57.75 54.5 57.75 54.75 57.25L57.25 54.75C58 54 58 53.25 57.75 53ZM23.25 37.5C23 38.25 23 39.25 23 40C23 41.75 23.25 43.5 23.75 45H10.5V42.5C10.5 41.25 15 38 23.25 37.5ZM25.5 32.5C14.5 32.5 5.5 37 5.5 42.5V50H33C30 47.75 28 44 28 40C28 37.25 28.75 34.75 30.25 32.75C28.75 32.75 27.25 32.5 25.5 32.5Z" fill="#019A38"/>
</svg>
