<svg width="61" height="60" viewBox="0 0 61 60" fill="none" xmlns="http://www.w3.org/2000/svg">
<path d="M48.675 47.25C49.75 45.525 50.375 43.45 50.375 41.25C50.375 35 45.375 30 39.15 30C32.925 30 27.9 35 27.9 41.25C27.9 47.5 32.9 52.5 39.15 52.5C41.325 52.5 43.375 51.875 45.1 50.8L52.9 58.475L56.375 55L48.675 47.25ZM39.15 47.5C35.675 47.5 32.9 44.7 32.9 41.25C32.9 37.8 35.675 35 39.15 35C42.625 35 45.375 37.8 45.375 41.25C45.375 44.7 42.6 47.5 39.15 47.5ZM55.5 35H54.125C53.3 32.975 52.05 31.175 50.5 29.65V25H55.5V35ZM50.5 10H43V5H50.5C51.8261 5 53.0979 5.52678 54.0355 6.46447C54.9732 7.40215 55.5 8.67392 55.5 10V17.5H50.5V10ZM35.5 10H25.5V5H35.5V10ZM10.5 5H18V10H10.5V17.5H5.5V10C5.5 8.67392 6.02678 7.40215 6.96447 6.46447C7.90215 5.52678 9.17392 5 10.5 5ZM30.5 55H25.5V50C26.75 52.05 28.5 53.75 30.5 55ZM10.5 50H18V55H10.5C9.17392 55 7.90215 54.4732 6.96447 53.5355C6.02678 52.5978 5.5 51.3261 5.5 50V42.5H10.5V50ZM10.5 35H5.5V25H10.5V35Z" fill="#019A38"/>
</svg>
