<svg width="65" height="65" viewBox="0 0 65 65" fill="none" xmlns="http://www.w3.org/2000/svg">
<g clip-path="url(#clip0)">
<path d="M64.9997 25.1136C64.9993 24.6569 64.7891 24.226 64.4273 23.9465C64.4273 23.9465 60.7949 21.1288 56.0902 17.4367V11.8181C56.0902 8.55923 53.4401 5.909 50.1811 5.909H41.6232C39.5183 4.18987 37.6915 2.67003 36.4715 1.58825C35.2979 0.5501 33.899 0.000138521 32.5006 2.61114e-08C31.101 -0.000138468 29.7018 0.550654 28.5299 1.58839C27.3099 2.67017 25.4834 4.19001 23.3769 5.90914H14.7265C11.4676 5.90914 8.81739 8.55923 8.81739 11.8183V17.5093C4.15954 21.1651 0.574059 23.9451 0.572674 23.9465C0.210927 24.226 0.000692472 24.6569 0.000276989 25.1136H0V59.0909C0 62.3498 2.65009 65 5.90914 65H59.091C62.3499 65 65.0001 62.3499 65.0001 59.0909V25.1136H64.9997ZM56.0902 21.1913C58.1782 22.826 59.9488 24.2058 61.1136 25.1122C59.9505 26.0149 58.1765 27.3946 56.0902 29.0259V21.1913ZM30.489 3.79987C31.7557 2.67751 33.243 2.67599 34.5125 3.80126C35.1774 4.3893 36.0159 5.10393 36.9791 5.909H28.0221C28.9855 5.10393 29.8241 4.38875 30.489 3.79987ZM11.772 11.8181C11.772 10.1894 13.0978 8.86364 14.7265 8.86364H50.1811C51.8098 8.86364 53.1356 10.1894 53.1356 11.8181V31.3413C46.5301 36.5294 38.2652 43.1036 34.5124 46.4258C34.156 46.7417 33.413 47.2727 32.4537 47.2727C31.7525 47.2727 31.0759 46.9885 30.4412 46.4258C26.6481 43.0672 18.3646 36.4682 11.772 31.2817V11.8181ZM8.81752 21.2637V28.9625C6.77182 27.3603 5.03164 26.0041 3.88657 25.1137C5.03233 24.221 6.77113 22.8658 8.81752 21.2637ZM62.0455 59.091C62.0455 60.7197 60.7197 62.0455 59.091 62.0455H5.90914C4.28045 62.0455 2.95464 60.7197 2.95464 59.091V28.1299C9.11626 32.9259 23.3716 44.1116 28.4823 48.639C29.6566 49.6777 31.0301 50.2274 32.4539 50.2274C33.8879 50.2274 35.3147 49.6633 36.4717 48.639C41.7829 43.9357 56.3211 32.578 62.0455 28.1289V59.091Z" fill="#019A38"/>
<path d="M19.2046 17.7273H45.7494C46.566 17.7273 47.2267 17.0666 47.2267 16.25C47.2267 15.4335 46.566 14.7727 45.7494 14.7727H19.2046C18.3881 14.7727 17.7273 15.4335 17.7273 16.25C17.7273 17.0666 18.3881 17.7273 19.2046 17.7273Z" fill="#019A38"/>
<path d="M47.2266 25.1135C47.2266 24.297 46.5658 23.6362 45.7493 23.6362H19.2046C18.3881 23.6362 17.7273 24.297 17.7273 25.1135C17.7273 25.9301 18.3881 26.5909 19.2046 26.5909H45.7494C46.5659 26.5909 47.2266 25.9301 47.2266 25.1135Z" fill="#019A38"/>
<path d="M41.3174 33.9773C41.3174 33.1608 40.6566 32.5 39.84 32.5H25.0674C24.2508 32.5 23.5901 33.1608 23.5901 33.9773C23.5901 34.7939 24.2508 35.4546 25.0674 35.4546H39.8402C40.6566 35.4546 41.3174 34.7939 41.3174 33.9773Z" fill="#019A38"/>
</g>
<defs>
<clipPath id="clip0">
<rect width="65" height="65" fill="white"/>
</clipPath>
</defs>
</svg>
