<svg width="28" height="28" viewBox="0 0 28 28" fill="none" xmlns="http://www.w3.org/2000/svg">
<path d="M13.9993 17.9998C15.0793 17.9998 15.9993 17.5998 16.8127 16.8132C17.5993 15.9998 17.9993 15.0798 17.9993 13.9998C17.9993 12.9198 17.5993 11.9998 16.8127 11.1865C15.9993 10.3998 15.0793 9.99984 13.9993 9.99984C12.9193 9.99984 11.9993 10.3998 11.186 11.1865C10.3994 11.9998 9.99935 12.9198 9.99935 13.9998C9.99935 15.0798 10.3994 15.9998 11.186 16.8132C11.9993 17.5998 12.9193 17.9998 13.9993 17.9998ZM13.9993 0.666504C17.666 0.666504 20.7993 1.99984 23.3993 4.59984C25.9993 7.19984 27.3327 10.3332 27.3327 13.9998V15.9332C27.3327 17.2665 26.866 18.3998 25.9993 19.3332C25.066 20.2265 23.9993 20.6665 22.666 20.6665C21.066 20.6665 19.746 19.9998 18.746 18.6665C17.4127 19.9998 15.8393 20.6665 13.9993 20.6665C12.1727 20.6665 10.5993 19.9998 9.27935 18.7198C7.99935 17.3998 7.33268 15.8398 7.33268 13.9998C7.33268 12.1732 7.99935 10.5998 9.27935 9.27984C10.5993 7.99984 12.1727 7.33317 13.9993 7.33317C15.8393 7.33317 17.3993 7.99984 18.7193 9.27984C19.9993 10.5998 20.666 12.1732 20.666 13.9998V15.9332C20.666 16.4798 20.8793 16.9598 21.2793 17.3732C21.6793 17.7865 22.146 17.9998 22.666 17.9998C23.226 17.9998 23.6927 17.7865 24.0927 17.3732C24.4927 16.9598 24.666 16.4798 24.666 15.9332V13.9998C24.666 11.0798 23.6393 8.57317 21.5327 6.4665C19.426 4.35984 16.9193 3.33317 13.9993 3.33317C11.0793 3.33317 8.57268 4.35984 6.46602 6.4665C4.35935 8.57317 3.33268 11.0798 3.33268 13.9998C3.33268 16.9198 4.35935 19.4265 6.46602 21.5332C8.57268 23.6398 11.0793 24.6665 13.9993 24.6665H20.666V27.3332H13.9993C10.3327 27.3332 7.19935 25.9998 4.59935 23.3998C1.99935 20.7998 0.666016 17.6665 0.666016 13.9998C0.666016 10.3332 1.99935 7.19984 4.59935 4.59984C7.19935 1.99984 10.3327 0.666504 13.9993 0.666504Z" fill="#017E2E"/>
</svg>
