<svg width="75" height="75" viewBox="0 0 75 75" fill="none" xmlns="http://www.w3.org/2000/svg">
<path d="M43.9601 22.9208C43.9631 21.7402 43.6157 20.5852 42.9619 19.6021C42.3081 18.619 41.3773 17.8519 40.2874 17.3981C39.1975 16.9443 37.9974 16.824 36.8391 17.0526C35.6807 17.2811 34.6163 17.8482 33.7804 18.682C32.9446 19.5158 32.3749 20.5789 32.1435 21.7367C31.9121 22.8944 32.0295 24.0948 32.4807 25.1859C32.9319 26.2769 33.6966 27.2095 34.6781 27.8657C35.6596 28.5219 36.8138 28.8721 37.9944 28.872C39.5742 28.8721 41.0894 28.2456 42.2078 27.13C43.3262 26.0143 43.9564 24.5005 43.9601 22.9208ZM37.9944 27.1142C37.1657 27.1113 36.3564 26.8629 35.6688 26.4004C34.9811 25.9379 34.446 25.282 34.1308 24.5156C33.8157 23.7491 33.7347 22.9064 33.8982 22.094C34.0616 21.2816 34.4621 20.5358 35.0491 19.9508C35.6361 19.3658 36.3833 18.9679 37.1963 18.8072C38.0093 18.6466 38.8517 18.7305 39.617 19.0483C40.3824 19.366 41.0364 19.9035 41.4966 20.5927C41.9567 21.282 42.2023 22.0921 42.2023 22.9208C42.1991 24.0345 41.7543 25.1014 40.9654 25.8876C40.1766 26.6737 39.1081 27.1148 37.9944 27.1142Z" fill="#EC681B"/>
<path d="M18.598 37.6611C17.7837 37.663 16.9882 37.9063 16.312 38.3601C15.6359 38.8139 15.1094 39.4579 14.7991 40.2108C14.4888 40.9638 14.4086 41.7917 14.5686 42.5902C14.7287 43.3887 15.1218 44.1218 15.6983 44.6969C16.2748 45.272 17.0089 45.6634 17.8077 45.8216C18.6065 45.9797 19.4343 45.8975 20.1865 45.5855C20.9386 45.2734 21.5814 44.7453 22.0336 44.0681C22.4858 43.3908 22.7272 42.5948 22.7271 41.7804C22.7246 40.687 22.2885 39.6392 21.5144 38.867C20.7403 38.0947 19.6915 37.6611 18.598 37.6611ZM18.598 44.142C18.1314 44.1401 17.6757 44 17.2886 43.7393C16.9016 43.4787 16.6004 43.1092 16.4231 42.6775C16.2458 42.2458 16.2004 41.7713 16.2927 41.3138C16.3849 40.8563 16.6106 40.4364 16.9412 40.1071C17.2719 39.7778 17.6927 39.5538 18.1505 39.4635C18.6084 39.3731 19.0827 39.4205 19.5137 39.5995C19.9447 39.7785 20.3129 40.0812 20.572 40.4694C20.8311 40.8575 20.9693 41.3137 20.9693 41.7804C20.9675 42.4079 20.7168 43.009 20.2722 43.4519C19.8276 43.8948 19.2255 44.1432 18.598 44.1426V44.142Z" fill="#EC681B"/>
<path d="M44.6835 45.3196C43.9856 45.3211 43.3038 45.5295 42.7243 45.9184C42.1448 46.3072 41.6936 46.8591 41.4276 47.5044C41.1616 48.1496 41.0928 48.8591 41.2299 49.5434C41.367 50.2277 41.7039 50.856 42.1979 51.3489C42.692 51.8418 43.321 52.1773 44.0056 52.3129C44.6902 52.4484 45.3996 52.3781 46.0442 52.1106C46.6888 51.8432 47.2397 51.3907 47.6273 50.8103C48.0148 50.23 48.2217 49.5477 48.2217 48.8499C48.2196 47.9128 47.8459 47.0149 47.1826 46.3531C46.5193 45.6913 45.6205 45.3196 44.6835 45.3196ZM44.6835 50.6223C44.3333 50.6208 43.9914 50.5155 43.7009 50.3198C43.4105 50.1241 43.1845 49.8467 43.0516 49.5227C42.9187 49.1987 42.8847 48.8425 42.954 48.4992C43.0233 48.1559 43.1927 47.8409 43.4409 47.5938C43.6891 47.3467 44.0049 47.1786 44.3485 47.1109C44.6921 47.0431 45.0481 47.0787 45.3715 47.2131C45.6949 47.3475 45.9713 47.5747 46.1657 47.866C46.3601 48.1573 46.4639 48.4996 46.4639 48.8499C46.4622 49.3208 46.2739 49.7719 45.9401 50.1041C45.6064 50.4364 45.1544 50.6227 44.6835 50.6222V50.6223Z" fill="#EC681B"/>
<path d="M63.4786 33.2981C64.1765 33.2965 64.8583 33.0881 65.4378 32.6993C66.0173 32.3104 66.4685 31.7585 66.7345 31.1133C67.0005 30.4681 67.0693 29.7585 66.9322 29.0743C66.7951 28.39 66.4582 27.7617 65.9642 27.2688C65.4702 26.7758 64.8411 26.4404 64.1565 26.3048C63.4719 26.1692 62.7625 26.2396 62.1179 26.507C61.4733 26.7745 60.9224 27.2269 60.5348 27.8073C60.1473 28.3877 59.9404 29.0699 59.9404 29.7678C59.9425 30.7048 60.3162 31.6027 60.9795 32.2646C61.6428 32.9264 62.5416 33.2981 63.4786 33.2981ZM63.4786 27.9954C63.8288 27.9969 64.1707 28.1022 64.4612 28.2979C64.7516 28.4936 64.9776 28.771 65.1105 29.095C65.2434 29.419 65.2774 29.7751 65.2081 30.1184C65.1388 30.4617 64.9694 30.7768 64.7212 31.0239C64.473 31.271 64.1572 31.439 63.8136 31.5068C63.47 31.5745 63.114 31.539 62.7906 31.4046C62.4672 31.2702 62.1908 31.043 61.9964 30.7517C61.802 30.4604 61.6982 30.118 61.6982 29.7678C61.6998 29.2968 61.8882 28.8457 62.2219 28.5135C62.5557 28.1812 63.0076 27.9948 63.4786 27.9954Z" fill="#EC681B"/>
<path d="M66.0411 36.7013L68.3592 33.6117C69.2521 32.4459 69.6962 30.998 69.6105 29.5321C69.4018 26.3334 66.7819 23.8275 63.6459 23.8275C60.51 23.8275 57.8906 26.3334 57.6814 29.5313C57.6361 30.2574 57.7264 30.9856 57.9478 31.6786L43.4512 31.9445L45.6884 28.9611C47.1164 27.0988 47.8272 24.7853 47.6912 22.4425C47.5372 20.0461 46.5185 17.787 44.8243 16.0851C43.9514 15.2115 42.915 14.5186 41.7742 14.0457C40.6333 13.5729 39.4105 13.3296 38.1756 13.3296C36.9407 13.3296 35.7179 13.5729 34.5771 14.0457C33.4362 14.5186 32.3998 15.2115 31.5269 16.0851C29.833 17.7866 28.8143 20.0451 28.6602 22.4411C28.5108 24.6751 29.2195 26.987 30.6621 28.9596L32.5974 31.539L11.997 31.6748C11.8147 31.676 11.6372 31.7339 11.4893 31.8404C11.3413 31.947 11.2301 32.0969 11.1711 32.2694L1.5121 60.5068C1.46687 60.6391 1.45386 60.7803 1.47415 60.9186C1.49443 61.057 1.54744 61.1885 1.62876 61.3022C1.71008 61.416 1.81737 61.5087 1.94171 61.5727C2.06606 61.6366 2.20387 61.67 2.3437 61.67H72.6562C72.7941 61.67 72.93 61.6376 73.053 61.5753C73.176 61.513 73.2827 61.4227 73.3643 61.3116C73.446 61.2005 73.5004 61.0718 73.523 60.9358C73.5457 60.7998 73.5361 60.6603 73.495 60.5287L66.0411 36.7013ZM59.4347 29.6466C59.5649 27.6503 61.1753 25.5853 63.6452 25.5853C66.1151 25.5853 67.7254 27.6508 67.8558 29.649C67.9134 30.6948 67.593 31.7265 66.9531 32.5558L63.6452 36.965L60.3436 32.5646C59.7085 31.7283 59.3871 30.6956 59.4354 29.6466H59.4347ZM58.7988 33.4205C58.8427 33.4844 58.8867 33.5479 58.9321 33.6109L62.943 38.9576C63.0248 39.0668 63.131 39.1554 63.253 39.2164C63.3751 39.2774 63.5096 39.3092 63.6461 39.3092C63.7825 39.3092 63.9171 39.2774 64.0392 39.2164C64.1612 39.1554 64.2673 39.0668 64.3492 38.9576L64.7416 38.4347L65.7408 41.629L52.1134 41.6321L51.1259 33.5621L58.7988 33.4205ZM32.0752 27.914C30.8825 26.2832 30.2928 24.3812 30.4148 22.5575C30.541 20.5859 31.3787 18.7272 32.7722 17.3268C33.4818 16.617 34.3242 16.054 35.2515 15.6698C36.1787 15.2857 37.1725 15.088 38.1762 15.088C39.1799 15.088 40.1737 15.2857 41.1009 15.6698C42.0282 16.054 42.8706 16.617 43.5802 17.3268C44.9745 18.7278 45.8125 20.5875 45.9386 22.56C46.0461 24.4826 45.4587 26.3798 44.2836 27.9054L38.1763 36.0456L32.0752 27.914ZM3.57329 59.9122L8.1392 46.5638L13.3376 46.548L18.0993 52.8946C18.1811 53.0037 18.2873 53.0923 18.4093 53.1533C18.5314 53.2144 18.6659 53.2461 18.8024 53.2461C18.9388 53.2461 19.0734 53.2144 19.1954 53.1533C19.3175 53.0923 19.4236 53.0037 19.5055 52.8946L23.2995 47.837L23.3462 59.9122H3.57329ZM23.0015 45.3057L18.8022 50.9025L14.6094 45.3143C13.7852 44.1864 13.3772 42.8755 13.4613 41.6201C13.6262 39.0903 15.6692 36.4737 18.8022 36.4737C21.9352 36.4737 23.9783 39.0903 24.1435 41.6226C24.2169 42.9475 23.8116 44.2547 23.0015 45.3057ZM36.8538 50.6983C36.7708 50.7801 36.7049 50.8776 36.66 50.9851C36.615 51.0926 36.5919 51.208 36.5919 51.3245L36.5966 59.9122H25.104L25.0488 45.3533C25.6864 44.1755 25.9807 42.8424 25.8984 41.5057C25.6501 37.6984 22.5335 34.7159 18.8033 34.7159C15.073 34.7159 11.9566 37.6984 11.7083 41.5042C11.6415 42.632 11.8444 43.7595 12.3002 44.7932L8.74213 44.8041L12.6332 33.4286L33.9114 33.289L37.4742 38.0377C37.556 38.1468 37.6622 38.2354 37.7842 38.2965C37.9063 38.3575 38.0408 38.3892 38.1773 38.3892C38.3137 38.3892 38.4483 38.3575 38.5704 38.2965C38.6924 38.2354 38.7985 38.1468 38.8804 38.0377L42.1142 33.7265L49.3592 33.5936L50.4631 42.6171C50.4892 42.8301 50.5923 43.0262 50.753 43.1685C50.9137 43.3107 51.1209 43.3892 51.3355 43.3892L66.2907 43.3858L68.496 50.4357L50.6418 50.466C50.798 49.8619 50.8566 49.2367 50.8155 48.6141C50.6069 45.4152 47.9869 42.9095 44.851 42.9095C41.715 42.9095 39.095 45.4152 38.8864 48.6127C38.8467 49.2373 38.9082 49.8642 39.0686 50.4691L37.484 50.4455C37.3672 50.4423 37.2511 50.4632 37.1427 50.5066C37.0343 50.5501 36.936 50.6154 36.8538 50.6983ZM48.1587 51.6377L44.8508 56.0469L41.5494 51.6467C40.914 50.8105 40.5922 49.7779 40.6403 48.7288C40.7705 46.7324 42.3811 44.6676 44.8508 44.6676C47.3206 44.6676 48.9311 46.733 49.0615 48.7313C49.1188 49.7771 48.7984 50.8086 48.1587 51.6379V51.6377ZM38.3544 59.9122L38.3501 52.2163L39.8315 52.2383C39.9268 52.3925 40.0285 52.5439 40.1368 52.6924L44.1477 58.0391C44.2296 58.1483 44.3357 58.2369 44.4578 58.2979C44.5798 58.3589 44.7144 58.3907 44.8508 58.3907C44.9873 58.3907 45.1218 58.3589 45.2439 58.2979C45.3659 58.2369 45.4721 58.1483 45.554 58.0391L49.5643 52.694C49.6788 52.5417 49.7859 52.3854 49.8855 52.2253L69.0456 52.1928L71.4603 59.9122H38.3544Z" fill="#EC681B"/>
</svg>
