<svg width="75" height="75" viewBox="0 0 75 75" fill="none" xmlns="http://www.w3.org/2000/svg">
<path d="M15.0004 19.5889C10.858 19.5889 7.50024 16.2807 7.50024 12.2006C7.50024 8.11996 10.858 4.81274 15.0004 4.81274C19.1423 4.81274 22.5 8.11996 22.5 12.2006C22.4961 16.2788 19.1403 19.5845 15.0004 19.5889ZM15.0004 7.27535C12.2386 7.27535 10.0001 9.48 10.0001 12.2006C10.0001 14.9206 12.2386 17.1263 15.0004 17.1263C17.7616 17.1263 20.0002 14.9206 20.0002 12.2006C20.0002 9.48 17.7616 7.27535 15.0004 7.27535Z" fill="#EC681B"/>
<path d="M44.9999 54.0667V61.455H31.2503V44.5594L23.7501 42.0963V29.4397H34.9999C38.45 29.4353 41.2459 26.6811 41.2503 23.2829V20.8203H6.24996C2.79985 20.8237 0.00439694 23.5779 0 26.9771V40.5216C0 42.5617 1.67913 44.2158 3.75007 44.2158H6.24996V66.3802H0V75.0001H2.50037V68.8428H20.0001V75.0001H22.5V63.9176H44.9999V75.0001H47.5003V56.5293H72.5001V75.0001H75V54.0667H44.9999ZM6.24996 28.2081V41.7532H3.75007C3.05976 41.7532 2.50037 41.2017 2.50037 40.5216V26.9771C2.50037 24.936 4.17902 23.2829 6.24996 23.2829H38.7499C38.7499 25.323 37.0708 26.9771 34.9999 26.9771H21.2503V43.8722L28.7499 46.3348V61.455H25.0003V48.2877L12.4999 43.67V66.3802H8.75033V28.2081H6.24996ZM20.0001 61.455V66.3802H15.0003V47.2241L22.5 49.9943V61.455H20.0001Z" fill="#EC681B"/>
<path d="M55 50.3725H65V19.5887H72.2378L60.0003 0L47.7627 19.5887H55V50.3725ZM52.2378 17.1261L60.0003 4.69854L67.7627 17.1261H62.5001V47.9099H57.5004V17.1261H52.2378Z" fill="#EC681B"/>
</svg>
