<svg width="75" height="75" viewBox="0 0 75 75" fill="none" xmlns="http://www.w3.org/2000/svg">
<g clip-path="url(#clip0)">
<path d="M17.5 20C7.83502 20 0 27.835 0 37.5C0 47.165 7.83502 55 17.5 55C27.165 55 35 47.165 35 37.5C34.9891 27.8395 27.1605 20.0109 17.5 20ZM17.5 52.5C9.21573 52.5 2.5 45.7843 2.5 37.5C2.5 29.2157 9.21573 22.5 17.5 22.5C25.7843 22.5 32.5 29.2157 32.5 37.5C32.491 45.7805 25.7805 52.491 17.5 52.5Z" fill="#EC681B"/>
<path d="M13.75 35C13.75 32.9289 12.0711 31.25 10 31.25C7.92893 31.25 6.25 32.9289 6.25 35C6.25 37.0711 7.92893 38.75 10 38.75C12.0701 38.7477 13.7477 37.0701 13.75 35ZM10 36.25C9.30964 36.25 8.75 35.6904 8.75 35C8.75 34.3096 9.30964 33.75 10 33.75C10.6904 33.75 11.25 34.3096 11.25 35C11.2496 35.6902 10.6902 36.2496 10 36.25Z" fill="#EC681B"/>
<path d="M25 31.25C22.9289 31.25 21.25 32.9289 21.25 35C21.25 37.0711 22.9289 38.75 25 38.75C27.0711 38.75 28.75 37.0711 28.75 35C28.7477 32.9299 27.0701 31.2523 25 31.25ZM25 36.25C24.3096 36.25 23.75 35.6904 23.75 35C23.75 34.3096 24.3096 33.75 25 33.75C25.6904 33.75 26.25 34.3096 26.25 35C26.2496 35.6902 25.6902 36.2496 25 36.25Z" fill="#EC681B"/>
<path d="M24.1455 41.3148C23.8312 41.2093 23.4878 41.2333 23.1912 41.3815C22.8946 41.5297 22.6692 41.7899 22.5648 42.1045C21.9894 43.8345 20.3705 45.0013 18.5474 45H16.4527C14.6295 45.0013 13.0107 43.8345 12.4353 42.1045C12.3036 41.669 11.9456 41.3394 11.5006 41.2441C11.0556 41.1488 10.594 41.3028 10.2955 41.6462C9.99689 41.9896 9.90854 42.4682 10.0648 42.8955C10.979 45.6469 13.5535 47.5026 16.4527 47.5H18.5474C21.4465 47.5024 24.0208 45.6467 24.9349 42.8955C25.1531 42.2411 24.7998 41.5336 24.1455 41.3148Z" fill="#EC681B"/>
<path d="M71.25 20H43.75C41.6799 20.0023 40.0023 21.6799 40 23.75V51.25C40.0023 53.3201 41.6799 54.9977 43.75 55H71.25C73.3201 54.9977 74.9977 53.3201 75 51.25V23.75C74.9977 21.6799 73.3201 20.0023 71.25 20ZM72.5 51.25C72.4996 51.9402 71.9402 52.4996 71.25 52.5H43.75C43.0598 52.4996 42.5004 51.9402 42.5 51.25V23.75C42.5004 23.0598 43.0598 22.5004 43.75 22.5H71.25C71.9402 22.5004 72.4996 23.0598 72.5 23.75V51.25Z" fill="#EC681B"/>
<path d="M68.429 25.6983C66.7435 24.495 64.4017 24.8857 63.1983 26.5711L52.9298 40.9473L51.001 39.5008C49.7878 38.5902 48.1455 38.5002 46.8401 39.2727C45.5346 40.0452 44.8232 41.5281 45.0375 43.0298C45.175 44.0155 45.7018 44.9049 46.5 45.4993L51.4988 49.2493C52.3066 49.8555 53.3248 50.1103 54.3229 49.9559C55.321 49.8015 56.2146 49.251 56.8015 48.4291L69.3015 30.9291C70.5025 29.2431 70.1122 26.9032 68.429 25.6983ZM67.2681 29.4764L54.7681 46.9752C54.5727 47.2498 54.2747 47.4339 53.9417 47.4856C53.6086 47.5374 53.2688 47.4525 52.9992 47.2502L47.9992 43.4989C47.7331 43.3016 47.5574 43.0056 47.5118 42.6774C47.4409 42.1768 47.6783 41.6827 48.1134 41.4251C48.5485 41.1675 49.0959 41.1971 49.5008 41.5001L52.4536 43.7144C52.7226 43.9166 53.0619 44.0016 53.3945 43.9501C53.727 43.8986 54.0247 43.715 54.22 43.4409L65.2331 28.0234C65.4244 27.7526 65.7165 27.5701 66.0438 27.5169C66.5428 27.4328 67.0433 27.6578 67.3116 28.0868C67.5798 28.5159 67.5629 29.0644 67.2688 29.4762L67.2681 29.4764Z" fill="#EC681B"/>
</g>
<defs>
<clipPath id="clip0">
<rect width="75" height="75" fill="white"/>
</clipPath>
</defs>
</svg>
