<svg width="75" height="75" viewBox="0 0 75 75" fill="none" xmlns="http://www.w3.org/2000/svg">
<path d="M73.9014 72.8027H65.0391V57.7707C70.6235 57.1521 75 51.8714 75 45.4688C75 39.1715 70.7656 33.9625 65.3131 33.2041C66.4017 31.8387 67.1455 30.1975 67.4306 28.4143C67.5262 27.8152 67.1181 27.2518 66.519 27.156C65.9178 27.0614 65.3564 27.4685 65.2607 28.0676C64.7941 30.9882 62.7535 33.4163 60.0069 34.4114C59.3509 34.649 58.8621 35.2204 58.7306 35.9023C58.5264 36.9602 57.7825 39.5492 55.2923 40.741C53.1437 41.7693 51.0357 41.139 50.2305 40.8207C48.8748 40.2825 47.967 39.4036 47.4047 38.6776V33.9299L52.2043 29.1306C52.6333 28.7014 52.6333 28.0059 52.2043 27.5769C51.7751 27.1481 51.0794 27.1478 50.6506 27.5769L47.4048 30.8225V23.5485C47.4048 22.9417 46.9131 22.4499 46.3062 22.4499C45.6993 22.4499 45.2076 22.9417 45.2076 23.5485V28.714L41.9619 25.4684C41.5327 25.0395 40.8372 25.0395 40.4082 25.4684C39.9791 25.8976 39.9791 26.5931 40.4082 27.0221L45.2077 31.8217V38.6783C44.6432 39.4052 43.7339 40.2841 42.3831 40.8204C41.5764 41.1391 39.4686 41.7696 37.3203 40.7414C36.2798 40.2428 35.4406 39.4493 34.8167 38.3874C35.0079 33.5314 33.6038 26.4347 31.5164 19.634C31.801 19.4801 32.0946 19.3412 32.3959 19.222C33.3744 18.8373 33.9694 17.8459 33.8436 16.8141C33.8203 16.6178 33.8089 16.4279 33.8089 16.2337C33.8089 14.0042 35.3186 12.0738 37.4801 11.5389C38.5201 11.2815 39.2464 10.3477 39.2464 9.25664C39.2464 5.36426 42.4137 2.19756 46.3069 2.19756C50.1992 2.19756 53.3659 5.36426 53.3659 9.26836C53.3659 10.3478 54.0921 11.2815 55.1323 11.539C57.5023 12.1257 59.0631 14.394 58.7689 16.8114C58.6433 17.8452 59.238 18.8361 60.2161 19.2218C62.2724 20.0312 63.9306 21.6688 64.7654 23.7146C64.9975 24.2832 65.6474 24.5414 66.1976 24.3168C66.7595 24.0876 67.0291 23.4464 66.7998 22.8847C65.7394 20.2857 63.633 18.2055 61.0214 17.1775C60.9775 17.1602 60.9454 17.1151 60.9505 17.0748C61.391 13.5256 59.072 10.2524 55.6603 9.40605C55.6049 9.39229 55.5633 9.33311 55.5633 9.25664C55.563 4.15239 51.4106 0 46.3066 0C41.2018 0 37.0488 4.15239 37.0488 9.26807C37.0488 9.33281 37.0072 9.39214 36.9521 9.40576C33.8076 10.1837 31.6113 12.9914 31.6113 16.2334C31.6113 16.5114 31.6282 16.7941 31.662 17.0769C31.6847 17.267 30.9853 17.425 30.8323 17.5167C30.5588 16.7074 30.2763 15.9116 29.9848 15.1375C25.2737 2.62632 20.5503 0 17.4174 0C11.9502 0 7.76909 7.70347 5.22422 14.1659C5.00186 14.7305 5.2793 15.3684 5.84385 15.5908C6.40811 15.8133 7.04634 15.5357 7.2687 14.9711C10.4654 6.85313 14.1645 2.19727 17.4174 2.19727C20.8154 2.19727 24.6466 7.19604 27.9284 15.9119C31.02 24.1225 32.6376 32.9905 32.6376 37.507C32.6376 46.5438 26.3975 53.9691 18.5161 54.6054V45.6896V45.6882V41.4875L23.1012 36.9023C23.5302 36.4731 23.5302 35.7776 23.1012 35.3486C22.672 34.9197 21.9765 34.9197 21.5474 35.3486L18.5162 38.3798V33.7859C18.5162 33.179 18.0245 32.6873 17.4176 32.6873C16.8107 32.6873 16.3189 33.179 16.3189 33.7859V41.0316V41.0331V43.0365L13.2876 40.0052C12.8584 39.5763 12.1629 39.5763 11.7338 40.0052C11.3048 40.4344 11.3048 41.1299 11.7338 41.5589L16.3189 46.144V54.6054C8.43735 53.9691 2.19727 46.5438 2.19727 37.507C2.19727 33.2616 3.56265 26.107 5.59497 19.7038C5.77852 19.1256 5.45845 18.5079 4.88013 18.3243C4.30269 18.1412 3.68438 18.461 3.50068 19.0392C1.37417 25.7394 0 32.9884 0 37.507C0 47.7617 7.22476 56.1763 16.3188 56.8081V72.8027H1.09863C0.491748 72.8027 0 73.2945 0 73.9014C0 74.5083 0.491748 75 1.09863 75H73.9014C74.5083 75 75 74.5083 75 73.9014C75 73.2945 74.5083 72.8027 73.9014 72.8027ZM45.2074 72.8027H18.5161V56.8081C26.4149 56.2594 32.9026 49.8384 34.4716 41.4406C35.0357 41.9577 35.6694 42.3866 36.3709 42.7228C39.2996 44.1248 42.1157 43.288 43.1919 42.8628C43.9731 42.5527 44.6391 42.157 45.2074 41.7312V72.8027ZM62.8418 72.8027H47.4047V41.7319C47.9728 42.1573 48.6388 42.5528 49.4213 42.8634C50.0499 43.1118 51.2738 43.5012 52.7678 43.5012C52.8519 43.5012 52.8809 44.8052 52.8809 45.4689C52.8809 51.8716 57.2574 57.1522 62.8418 57.7708V72.8027ZM63.9404 44.7104C63.3335 44.7104 62.8418 45.2021 62.8418 45.809V51.8481V51.8496V55.5538C58.472 54.9308 55.0781 50.6473 55.0781 45.4688C55.0781 44.6634 55.1615 43.8672 55.3236 43.0935C58.6875 41.9669 60.6192 38.0238 60.8643 36.4371C61.6094 36.1578 62.3099 35.7967 62.9571 35.3665C68.292 34.6789 72.8027 39.5235 72.8027 45.4688C72.8027 50.6473 69.4088 54.9308 65.0391 55.5538V52.304L68.5128 48.8303C68.9418 48.4011 68.9418 47.7056 68.5128 47.2765C68.0836 46.8476 67.3881 46.8476 66.959 47.2765L65.0391 49.1965V45.809C65.0391 45.2021 64.5473 44.7104 63.9404 44.7104Z" fill="#EC681B"/>
</svg>
