<svg width="14" height="18" viewBox="0 0 14 18" fill="none" xmlns="http://www.w3.org/2000/svg">
<path d="M1.64264 5.5725C1.40389 4 2.51264 2.5875 4.20639 2.07C4.50696 1.9781 4.83126 2.00426 5.11321 2.14314C5.39517 2.28203 5.61356 2.52319 5.72389 2.8175L6.26764 4.2675C6.35517 4.50076 6.371 4.75487 6.31309 4.99719C6.25518 5.23952 6.12618 5.45901 5.94264 5.6275L4.32514 7.10875C4.24541 7.18191 4.186 7.27449 4.1527 7.37745C4.1194 7.48042 4.11335 7.59025 4.13514 7.69625L4.15014 7.76125L4.18889 7.92375C4.39005 8.7133 4.69655 9.4722 5.10014 10.18C5.53978 10.9321 6.08537 11.6171 6.72014 12.2137L6.77014 12.2587C6.85089 12.3304 6.94883 12.38 7.05442 12.4025C7.16001 12.4251 7.26965 12.4199 7.37264 12.3875L9.46389 11.7287C9.70155 11.6541 9.95609 11.6522 10.1948 11.7233C10.4336 11.7943 10.6457 11.9351 10.8039 12.1275L11.7939 13.3287C12.2064 13.8287 12.1564 14.5637 11.6826 15.005C10.3864 16.2137 8.60389 16.4612 7.36389 15.465C5.84392 14.2389 4.56258 12.7436 3.58389 11.0537C2.59725 9.36517 1.93822 7.50553 1.64139 5.5725H1.64264ZM5.44639 7.77875L6.78639 6.54875C7.15369 6.21192 7.41193 5.773 7.52797 5.28834C7.64401 4.80368 7.61256 4.2954 7.43764 3.82875L6.89514 2.37875C6.67307 1.78656 6.23356 1.30132 5.66616 1.02192C5.09876 0.742518 4.44618 0.689975 3.84139 0.874997C1.73764 1.51875 0.048891 3.405 0.406391 5.76125C0.656391 7.40625 1.23264 9.49875 2.50389 11.6837C3.55978 13.5059 4.94196 15.1181 6.58139 16.44C8.44139 17.9337 10.9239 17.4237 12.5364 15.9212C13.4939 15.0287 13.5914 13.5462 12.7601 12.5362L11.7701 11.3337C11.4534 10.9493 11.0291 10.6683 10.5516 10.5267C10.0741 10.385 9.56523 10.3892 9.09014 10.5387L7.35389 11.085C6.9056 10.6228 6.51293 10.1097 6.18389 9.55625C5.86604 8.9967 5.61835 8.40012 5.44639 7.78V7.77875Z" fill="#019A38"/>
</svg>
