<svg width="27" height="28" viewBox="0 0 27 28" fill="none" xmlns="http://www.w3.org/2000/svg">
<path d="M19.3127 16.6665C19.4193 15.7865 19.4993 14.9065 19.4993 13.9998C19.4993 13.0932 19.4193 12.2132 19.3127 11.3332H23.8193C24.0327 12.1865 24.166 13.0798 24.166 13.9998C24.166 14.9198 24.0327 15.8132 23.8193 16.6665H19.3127ZM16.9527 24.0798C17.7527 22.5998 18.366 20.9998 18.7927 19.3332H22.726C21.4342 21.5575 19.3848 23.2425 16.9527 24.0798ZM16.6194 16.6665H10.3793C10.246 15.7865 10.166 14.9065 10.166 13.9998C10.166 13.0932 10.246 12.1998 10.3793 11.3332H16.6194C16.7393 12.1998 16.8327 13.0932 16.8327 13.9998C16.8327 14.9065 16.7393 15.7865 16.6194 16.6665ZM13.4993 24.6132C12.3927 23.0132 11.4993 21.2398 10.9527 19.3332H16.046C15.4993 21.2398 14.606 23.0132 13.4993 24.6132ZM8.16602 8.6665H4.27268C5.55116 6.43612 7.59908 4.74849 10.0327 3.91984C9.23268 5.39984 8.63268 6.99984 8.16602 8.6665ZM4.27268 19.3332H8.16602C8.63268 20.9998 9.23268 22.5998 10.0327 24.0798C7.60418 23.2421 5.55914 21.5568 4.27268 19.3332ZM3.17935 16.6665C2.96602 15.8132 2.83268 14.9198 2.83268 13.9998C2.83268 13.0798 2.96602 12.1865 3.17935 11.3332H7.68602C7.57935 12.2132 7.49935 13.0932 7.49935 13.9998C7.49935 14.9065 7.57935 15.7865 7.68602 16.6665H3.17935ZM13.4993 3.37317C14.606 4.97317 15.4993 6.75984 16.046 8.6665H10.9527C11.4993 6.75984 12.3927 4.97317 13.4993 3.37317ZM22.726 8.6665H18.7927C18.3754 7.01511 17.7574 5.42103 16.9527 3.91984C19.406 4.75984 21.446 6.45317 22.726 8.6665ZM13.4993 0.666504C6.12602 0.666504 0.166016 6.6665 0.166016 13.9998C0.166016 17.5361 1.57077 20.9274 4.07126 23.4279C5.30937 24.666 6.77923 25.6482 8.3969 26.3182C10.0146 26.9883 11.7484 27.3332 13.4993 27.3332C17.0356 27.3332 20.427 25.9284 22.9274 23.4279C25.4279 20.9274 26.8327 17.5361 26.8327 13.9998C26.8327 12.2489 26.4878 10.5151 25.8177 8.89739C25.1477 7.27972 24.1656 5.80986 22.9274 4.57175C21.6893 3.33363 20.2195 2.35151 18.6018 1.68144C16.9841 1.01138 15.2503 0.666504 13.4993 0.666504Z" fill="#017E2E"/>
</svg>
