<svg width="50" height="50" viewBox="0 0 50 50" fill="none" xmlns="http://www.w3.org/2000/svg">
<path d="M27.6047 28.4148L41.2068 42.0169C41.3499 42.16 41.5376 42.2313 41.7249 42.2313C41.9122 42.2313 42.0999 42.16 42.2425 42.0169C42.5286 41.7308 42.5286 41.2673 42.2425 40.9812L28.6404 27.3791C28.3543 27.093 27.8904 27.093 27.6047 27.3791C27.3186 27.6652 27.3186 28.1287 27.6047 28.4148Z" fill="black"/>
<path d="M15.9631 15.7373C15.677 16.0234 15.677 16.4869 15.9631 16.773L19.637 20.4469C19.7801 20.59 19.9674 20.6613 20.1551 20.6613C20.3424 20.6613 20.5297 20.59 20.6727 20.4469C20.9588 20.1608 20.9588 19.6973 20.6727 19.4112L16.9988 15.7373C16.7127 15.4512 16.2492 15.4512 15.9631 15.7373Z" fill="black"/>
<path d="M24.6264 28.5054L36.423 15.45L37.3007 16.2381C37.5537 16.4647 37.8707 16.5765 38.1865 16.5765C38.5493 16.5765 38.9109 16.4292 39.1722 16.1401L39.4042 15.8834L40.2297 16.6291L39.902 16.9915C39.5442 17.3875 39.3622 17.8987 39.3893 18.4316C39.4164 18.9641 39.6491 19.4547 40.0447 19.8121L42.0333 21.6088C42.4033 21.9434 42.8744 22.1242 43.3696 22.1242C43.4039 22.1242 43.4386 22.1234 43.4729 22.1215C44.0058 22.0948 44.496 21.8618 44.8539 21.4662L49.2671 16.5814C50.0052 15.7643 49.9411 14.4994 49.1244 13.7609L47.1358 11.9641C46.7402 11.6067 46.2291 11.4251 45.6961 11.4514C45.1903 11.477 44.7226 11.6883 44.3702 12.0484L43.5439 11.3019L43.8418 10.9715C44.3324 10.4291 44.29 9.58833 43.7476 9.09738L37.1382 3.11745V3.11707C35.3442 1.4962 33.0042 0.476531 30.5495 0.24536C28.1024 0.014952 25.8021 0.58525 24.0721 1.84982C23.6376 2.16721 23.4385 2.71042 23.5644 3.23342C23.6906 3.75641 24.1156 4.14895 24.647 4.23325C29.6534 5.029 31.013 6.64186 31.3651 7.29837C31.721 7.96212 31.6981 8.714 31.2949 9.59634C31.1133 9.99422 31.1396 10.4409 31.3464 10.8037L19.5204 23.8923C18.9139 23.5444 18.1246 23.6524 17.6371 24.1914L16.7597 25.1626C16.2695 25.7051 16.2447 26.5077 16.6598 27.0765L13.6046 29.2375C13.6 29.2409 13.5954 29.244 13.5908 29.2474C12.361 30.1599 11.2166 31.1986 10.19 32.335L1.43262 42.027C-0.30612 43.9512 -0.155058 46.9312 1.76908 48.67C2.64074 49.4577 3.75043 49.8838 4.91659 49.8838C4.99746 49.8838 5.07871 49.8819 5.16035 49.8777C6.415 49.8144 7.56972 49.2658 8.412 48.3335L17.1698 38.6415C18.1963 37.5055 19.1142 36.2619 19.8977 34.9458C19.9004 34.9412 19.9034 34.9363 19.9061 34.9317L21.7471 31.6736C21.9778 31.8094 22.2403 31.8811 22.5127 31.8811C22.5386 31.8811 22.5649 31.8803 22.5913 31.8792C22.9964 31.8586 23.3695 31.6816 23.6414 31.3806L24.5188 30.4094C24.7908 30.1084 24.9293 29.7197 24.9087 29.3142C24.8938 29.0185 24.7954 28.74 24.6264 28.5054ZM23.5625 27.498L20.6305 24.8487L32.3912 11.8325L35.3324 14.4719L23.5625 27.498ZM45.7701 12.9148C45.9124 12.9079 46.0482 12.956 46.1539 13.0513L48.1421 14.8477C48.36 15.0445 48.3771 15.3817 48.1803 15.5992L43.767 20.4839C43.6717 20.5892 43.5408 20.6514 43.3989 20.6586C43.2574 20.6658 43.1208 20.617 43.0156 20.522L41.0269 18.7253C40.8091 18.5285 40.792 18.1916 40.9888 17.9738L45.4024 13.0895C45.4978 12.9838 45.6282 12.922 45.7701 12.9148ZM43.3871 13.1345L41.212 15.5423L40.3865 14.7965L42.562 12.3887L43.3871 13.1345ZM25.212 2.84203C28.2591 0.85495 33.0878 1.43211 36.1556 4.2035L42.6631 10.0915L38.1774 15.0563L32.6686 10.1132C33.2255 8.83951 33.2217 7.66 32.656 6.60562C31.399 4.26224 27.5912 3.25287 25.212 2.84203ZM18.635 34.2035C17.9015 35.4341 17.0428 36.5968 16.0826 37.6592L7.32519 47.3512C6.74536 47.9932 5.94999 48.3709 5.08596 48.4148C4.22193 48.4586 3.393 48.163 2.75098 47.5832C2.10935 47.0033 1.73169 46.208 1.68821 45.3443C1.64434 44.4803 1.9396 43.651 2.51943 43.0093L11.2772 33.3169C12.2374 32.2545 13.307 31.2829 14.4572 30.4288L17.7473 28.1019L20.6171 30.6951L18.635 34.2035ZM23.4316 29.4271L22.5542 30.3983C22.5508 30.4025 22.5394 30.4147 22.5169 30.4158C22.4944 30.4147 22.4822 30.4059 22.4783 30.4021L17.8507 26.2212C17.8286 26.201 17.8271 26.1667 17.8469 26.1449L18.7243 25.1737C18.7445 25.1516 18.7785 25.15 18.8006 25.1699L23.4278 29.3512C23.432 29.3546 23.4446 29.366 23.4457 29.3882C23.4469 29.4107 23.4354 29.4233 23.4316 29.4271Z" fill="black"/>
<path d="M3.29254 16.2015C5.19646 17.7419 7.76413 18.3808 10.3368 17.9551C11.39 17.7804 12.4818 18.1393 13.2569 18.9145L16.6875 22.3447C16.8302 22.4877 17.0178 22.5591 17.2051 22.5591C17.3928 22.5591 17.5801 22.4877 17.7232 22.3447C18.0093 22.0586 18.0093 21.5947 17.7232 21.3086L14.293 17.8784C13.1841 16.7699 11.6158 16.2583 10.0976 16.5097C7.93732 16.8675 5.7927 16.34 4.21379 15.0624C2.41249 13.6052 1.40121 11.3881 1.46835 9.07943L5.88539 12.653C7.1183 13.6506 8.93258 13.4591 9.92936 12.2262L11.9584 9.71877C12.4413 9.12139 12.663 8.37218 12.5825 7.60848C12.502 6.84439 12.1285 6.15775 11.5315 5.67481L7.11411 2.10081C9.46282 1.52594 11.9244 2.12027 13.7574 3.72053C15.3691 5.12778 16.2423 7.27317 16.1527 9.60662C16.0996 10.9948 16.6177 12.3395 17.574 13.2962L22.0525 17.7747C22.3386 18.0604 22.8021 18.0604 23.0882 17.7747C23.3743 17.4886 23.3743 17.0247 23.0882 16.7386L18.6097 12.2605C17.941 11.5914 17.579 10.6446 17.6167 9.6627C17.7232 6.88483 16.6677 4.31677 14.7206 2.61694C12.4288 0.616129 9.31557 -0.0716623 6.39313 0.777872C5.92774 0.912912 5.57945 1.29248 5.4837 1.76817C5.38757 2.24424 5.56267 2.72986 5.93994 3.03541L10.6099 6.81349C10.9029 7.05039 11.086 7.38723 11.1257 7.76221C11.1653 8.13682 11.0566 8.50455 10.8193 8.79752L8.79067 11.3053C8.30124 11.9096 7.41166 12.0038 6.80702 11.5144L2.13745 7.73627C1.75979 7.43071 1.24786 7.36129 0.801538 7.55431C0.357125 7.74733 0.0591963 8.16619 0.0241011 8.64875C-0.187615 11.551 1.03423 14.3742 3.29254 16.2015Z" fill="black"/>
<path d="M48.7585 42.4093L31.0552 24.706C30.7691 24.4203 30.3052 24.4203 30.0195 24.706C29.7334 24.9921 29.7334 25.456 30.0195 25.7421L47.7228 43.445C48.8066 44.5291 48.8066 46.293 47.7228 47.3768C46.6387 48.4605 44.8751 48.4613 43.7917 47.3771L27.1024 30.6882C26.8163 30.4021 26.3524 30.4021 26.0663 30.6882C25.7806 30.9743 25.7806 31.4378 26.0663 31.7239L42.7557 48.4132C43.5831 49.2406 44.6699 49.6541 45.7567 49.6541C46.8435 49.6541 47.9311 49.2402 48.7585 48.4125C50.4133 46.7576 50.4133 44.0645 48.7585 42.4093Z" fill="black"/>
</svg>
