<svg width="50" height="50" viewBox="0 0 50 50" fill="none" xmlns="http://www.w3.org/2000/svg">
<path d="M47.5366 46.8529H39.9831V36.3248C40.1283 36.3425 40.2743 36.3518 40.4206 36.3525C41.4336 36.3508 42.4047 35.9475 43.121 35.2312C43.8373 34.5148 44.2404 33.5437 44.2421 32.5307V32.4939C44.882 32.4071 45.4895 32.1597 46.0079 31.7746C46.5263 31.3895 46.9388 30.8794 47.2067 30.2919C47.4747 29.7044 47.5895 29.0585 47.5405 28.4146C47.4914 27.7707 47.28 27.1497 46.926 26.6096C47.3645 26.2232 47.7085 25.7414 47.9314 25.2013C48.1544 24.6611 48.2504 24.0769 48.212 23.4938C48.1737 22.9107 48.002 22.3441 47.7103 21.8378C47.4185 21.3315 47.0144 20.8988 46.5292 20.5732C46.8372 19.7003 46.8176 18.7452 46.4738 17.8857C46.1301 17.0262 45.4858 16.3208 44.6608 15.901C44.6987 15.6865 44.7178 15.4692 44.7178 15.2514C44.7163 14.3595 44.4032 13.4961 43.8325 12.8107C43.2619 12.1252 42.4697 11.6607 41.5928 11.4975C41.5588 10.5077 41.1419 9.56978 40.4299 8.88139C39.7179 8.193 38.7665 7.80789 37.7761 7.80723C36.7858 7.80658 35.8339 8.19041 35.121 8.87786C34.4081 9.5653 33.9899 10.5027 33.9546 11.4924C33.7346 11.5355 33.5189 11.5981 33.31 11.6795C33.3694 11.3866 33.3993 11.0885 33.3995 10.7896C33.3978 9.70538 33.0094 8.65729 32.304 7.83383C31.5986 7.01038 30.6226 6.4656 29.5514 6.29746C29.5521 5.09052 29.0733 3.93274 28.2203 3.07883C27.3674 2.22492 26.2101 1.74481 25.0032 1.74414C23.7962 1.74347 22.6385 2.22228 21.7846 3.07524C20.9306 3.9282 20.4505 5.08544 20.4499 6.29238C19.3783 6.46124 18.402 7.00681 17.6967 7.83103C16.9913 8.65524 16.6031 9.70404 16.6018 10.7889C16.602 11.0881 16.6321 11.3866 16.6917 11.6799C16.4829 11.5987 16.2671 11.5366 16.0471 11.4943C16.0111 10.5056 15.5929 9.56937 14.8807 8.88262C14.1684 8.19587 13.2176 7.81213 12.2282 7.81213C11.2388 7.81213 10.2879 8.19587 9.57569 8.88262C8.86344 9.56937 8.44531 10.5056 8.40925 11.4943C7.53195 11.6583 6.7395 12.1236 6.16889 12.8098C5.59828 13.496 5.28536 14.3601 5.28425 15.2525C5.2843 15.4703 5.30338 15.6877 5.34128 15.9021C4.51626 16.3217 3.87178 17.0267 3.52779 17.886C3.18381 18.7453 3.16375 19.7003 3.47136 20.5732C2.98608 20.8988 2.58201 21.3315 2.29025 21.8378C1.9985 22.3441 1.82684 22.9107 1.7885 23.4938C1.75016 24.0769 1.84616 24.6611 2.06911 25.2013C2.29207 25.7414 2.63602 26.2232 3.07448 26.6096C2.72053 27.1497 2.50915 27.7707 2.46007 28.4146C2.41098 29.0585 2.52579 29.7044 2.79378 30.2919C3.06177 30.8794 3.47421 31.3895 3.99263 31.7746C4.51105 32.1597 5.11855 32.4071 5.75846 32.4939V32.5307C5.76012 33.5437 6.16326 34.5148 6.87955 35.2312C7.59585 35.9475 8.5669 36.3508 9.57995 36.3525C9.7262 36.3518 9.87227 36.3425 10.0174 36.3248V46.8529H2.46393C2.28263 46.8529 2.10876 46.925 1.98056 47.0532C1.85236 47.1814 1.78034 47.3552 1.78034 47.5365C1.78034 47.7178 1.85236 47.8917 1.98056 48.0199C2.10876 48.1481 2.28263 48.2201 2.46393 48.2201H47.5366C47.7179 48.2201 47.8918 48.1481 48.02 48.0199C48.1482 47.8917 48.2202 47.7178 48.2202 47.5365C48.2202 47.3552 48.1482 47.1814 48.02 47.0532C47.8918 46.925 47.7179 46.8529 47.5366 46.8529ZM35.1956 12.5592C35.2596 12.4843 35.3068 12.3965 35.3338 12.3017C35.3607 12.2069 35.3669 12.1074 35.3518 12.01C35.3309 11.8852 35.32 11.7591 35.319 11.6326C35.319 10.9817 35.5776 10.3574 36.0379 9.89717C36.4981 9.4369 37.1224 9.17832 37.7733 9.17832C38.4242 9.17832 39.0485 9.4369 39.5088 9.89717C39.969 10.3574 40.2276 10.9817 40.2276 11.6326C40.2266 11.7591 40.2157 11.8852 40.1948 12.01C40.1823 12.1079 40.1909 12.2075 40.2202 12.3018C40.2494 12.3962 40.2986 12.4831 40.3643 12.5568C40.431 12.6319 40.5129 12.692 40.6046 12.733C40.6962 12.7741 40.7955 12.7953 40.896 12.7951C41.2898 12.7938 41.6782 12.8875 42.028 13.0684C42.3779 13.2492 42.6789 13.5119 42.9055 13.834C43.1322 14.1561 43.2777 14.5282 43.3297 14.9186C43.3818 15.3089 43.3389 15.7061 43.2046 16.0764C43.1734 16.1634 43.1601 16.2558 43.1657 16.348C43.1712 16.4402 43.1953 16.5304 43.2367 16.6131C43.278 16.6957 43.3356 16.7691 43.4061 16.8289C43.4766 16.8886 43.5584 16.9335 43.6467 16.9607C43.9988 17.0685 44.3221 17.2543 44.5925 17.5042C44.863 17.7542 45.0736 18.0618 45.2087 18.4044C45.3438 18.7469 45.4 19.1155 45.373 19.4828C45.3461 19.85 45.2367 20.2064 45.053 20.5256C45.005 20.609 44.9752 20.7016 44.9655 20.7974C44.9558 20.8931 44.9664 20.9898 44.9967 21.0812C45.027 21.1725 45.0762 21.2565 45.1412 21.3274C45.2062 21.3984 45.2854 21.4549 45.3737 21.4932C45.7932 21.6745 46.1536 21.9694 46.4144 22.3447C46.6753 22.72 46.826 23.1606 46.8498 23.617C46.8736 24.0734 46.7693 24.5273 46.5489 24.9276C46.3285 25.3279 46.0006 25.6587 45.6022 25.8826C45.5102 25.9346 45.4315 26.0072 45.3723 26.0947C45.313 26.1822 45.2749 26.2823 45.2609 26.387C45.2468 26.4917 45.2572 26.5983 45.2913 26.6983C45.3254 26.7983 45.3822 26.8891 45.4573 26.9635C45.8029 27.3057 46.039 27.743 46.1356 28.2197C46.2321 28.6964 46.1848 29.1911 45.9997 29.6408C45.8145 30.0906 45.4999 30.4752 45.0957 30.7458C44.6915 31.0163 44.216 31.1606 43.7296 31.1604C43.6628 31.1604 43.5971 31.1553 43.5319 31.1498C43.425 31.1412 43.3176 31.158 43.2184 31.1986C43.1191 31.2392 43.0309 31.3027 42.9607 31.3838C42.8905 31.4648 42.8404 31.5613 42.8145 31.6653C42.7885 31.7694 42.7874 31.8781 42.8112 31.9826C42.8525 32.162 42.8739 32.3454 42.8749 32.5295C42.8755 33.061 42.7033 33.5784 42.3844 34.0036C42.0654 34.4289 41.617 34.739 41.1065 34.8872C40.596 35.0355 40.0512 35.0138 39.5541 34.8256C39.057 34.6374 38.6345 34.2927 38.3503 33.8436C38.2885 33.7466 38.2032 33.6668 38.1024 33.6115C38.0016 33.5562 37.8885 33.5272 37.7735 33.5272C37.6585 33.5272 37.5454 33.5562 37.4446 33.6115C37.3438 33.6668 37.2585 33.7466 37.1967 33.8436C36.9341 34.2596 36.5521 34.5868 36.1006 34.7825C35.6491 34.9781 35.1491 35.0332 34.6659 34.9404C34.1827 34.8476 33.7387 34.6113 33.3918 34.2623C33.0449 33.9134 32.8113 33.4679 32.7214 32.9842C32.7819 32.6868 32.8125 32.3841 32.8128 32.0807C32.8128 32.0189 32.8128 31.9572 32.8085 31.8947C33.597 31.813 34.3506 31.5267 34.9944 31.0642C35.6383 30.6017 36.1502 29.979 36.4795 29.2579C36.8087 28.5367 36.9438 27.742 36.8715 26.9525C36.7992 26.1631 36.5219 25.4062 36.0671 24.7568C36.6204 24.2991 37.0574 23.7167 37.3423 23.0575C37.6273 22.3983 37.7519 21.6809 37.7062 20.9642C37.6605 20.2475 37.4456 19.5519 37.0792 18.9342C36.7128 18.3166 36.2053 17.7945 35.5983 17.4107C35.8946 16.6383 35.9747 15.7997 35.8302 14.9851C35.6857 14.1705 35.3219 13.4107 34.778 12.7873C34.9393 12.7615 35.0867 12.681 35.1956 12.5592ZM28.2616 36.6307C28.9916 36.6302 29.7108 36.4538 30.3582 36.1166C31.0056 35.7793 31.5623 35.2911 31.9811 34.6932C32.3327 35.203 32.8025 35.6201 33.3502 35.9091C33.898 36.198 34.5075 36.3502 35.1268 36.3525C35.2729 36.3518 35.4189 36.3425 35.5639 36.3248V46.8529H27.5639V36.5717C27.7946 36.6093 28.0279 36.629 28.2616 36.6307ZM18.1253 12.3967C18.1666 12.3141 18.1908 12.224 18.1964 12.1318C18.202 12.0397 18.1888 11.9473 18.1577 11.8604C17.9851 11.3829 17.9296 10.871 17.9957 10.3676C18.0617 9.86421 18.2475 9.384 18.5374 8.96721C18.8273 8.55043 19.213 8.20922 19.6619 7.97218C20.1109 7.73515 20.6102 7.6092 21.1178 7.60488C21.227 7.61264 21.3366 7.59538 21.4381 7.55443C21.5397 7.51348 21.6305 7.44991 21.7038 7.36856C21.7679 7.2936 21.815 7.20568 21.842 7.11083C21.8689 7.01597 21.8751 6.9164 21.86 6.81895C21.8332 6.65741 21.8191 6.49402 21.8178 6.33027C21.8178 5.48593 22.1533 4.67617 22.7503 4.07913C23.3473 3.48209 24.1571 3.14668 25.0014 3.14668C25.8458 3.14668 26.6555 3.48209 27.2526 4.07913C27.8496 4.67617 28.185 5.48593 28.185 6.33027C28.1838 6.49402 28.1697 6.65741 28.1428 6.81895C28.1305 6.91743 28.1395 7.01741 28.1693 7.1121C28.199 7.2068 28.2487 7.29399 28.3151 7.36777C28.3825 7.44294 28.465 7.50302 28.5572 7.54408C28.6495 7.58514 28.7493 7.60626 28.8503 7.60606C29.3607 7.6048 29.864 7.72665 30.3174 7.96127C30.7707 8.1959 31.1609 8.53638 31.4546 8.95386C31.7484 9.37134 31.9372 9.8535 32.005 10.3595C32.0728 10.8654 32.0175 11.3803 31.844 11.8604C31.8129 11.9473 31.7998 12.0397 31.8054 12.1319C31.811 12.224 31.8351 12.3141 31.8764 12.3967C31.9178 12.4793 31.9754 12.5527 32.0458 12.6124C32.1162 12.6722 32.198 12.717 32.2862 12.7443C32.7426 12.8844 33.1615 13.1256 33.5119 13.4498C33.8623 13.7741 34.1351 14.1731 34.3101 14.6173C34.4851 15.0614 34.5578 15.5393 34.5228 16.0154C34.4877 16.4915 34.3458 16.9536 34.1077 17.3674C34.0598 17.4509 34.03 17.5435 34.0204 17.6393C34.0107 17.7351 34.0214 17.8318 34.0517 17.9232C34.082 18.0146 34.1313 18.0985 34.1963 18.1695C34.2612 18.2405 34.3405 18.2971 34.4288 18.3354C34.9728 18.5704 35.4403 18.9527 35.7786 19.4393C36.117 19.9258 36.3127 20.4972 36.3437 21.089C36.3746 21.6808 36.2397 22.2695 35.954 22.7887C35.6683 23.3079 35.2433 23.737 34.7268 24.0275C34.6348 24.0795 34.5562 24.1521 34.4969 24.2396C34.4377 24.3271 34.3996 24.4271 34.3855 24.5319C34.3714 24.6366 34.3818 24.7431 34.4158 24.8431C34.4498 24.9432 34.5065 25.034 34.5815 25.1084C35.0297 25.5522 35.3358 26.1192 35.4611 26.7374C35.5863 27.3555 35.5251 27.997 35.285 28.5803C35.045 29.1635 34.6371 29.6623 34.113 30.0133C33.5889 30.3642 32.9724 30.5515 32.3417 30.5514C32.2546 30.5514 32.1698 30.5447 32.0846 30.5381C31.9777 30.5296 31.8702 30.5463 31.771 30.5871C31.6717 30.6278 31.5834 30.6913 31.5133 30.7724C31.4431 30.8536 31.393 30.9501 31.3671 31.0542C31.3411 31.1583 31.3401 31.2671 31.3639 31.3717C31.5322 32.103 31.4364 32.8703 31.0934 33.5378C30.7504 34.2053 30.1823 34.73 29.4897 35.0189C28.7971 35.3078 28.0246 35.3425 27.3089 35.1166C26.5932 34.8908 25.9805 34.4191 25.5792 33.785C25.5175 33.6878 25.4322 33.6079 25.3314 33.5525C25.2305 33.4971 25.1173 33.468 25.0022 33.468C24.8871 33.468 24.7739 33.4971 24.6731 33.5525C24.5722 33.6079 24.487 33.6878 24.4253 33.785C24.0251 34.4213 23.4123 34.8952 22.6958 35.1224C21.9793 35.3496 21.2055 35.3155 20.5117 35.0261C19.818 34.7367 19.2493 34.2107 18.9067 33.5417C18.5641 32.8726 18.4698 32.1037 18.6405 31.3717C18.6644 31.2671 18.6633 31.1583 18.6374 31.0542C18.6114 30.9501 18.5613 30.8536 18.4912 30.7724C18.421 30.6913 18.3327 30.6278 18.2335 30.5871C18.1342 30.5463 18.0267 30.5296 17.9198 30.5381C17.8346 30.5447 17.7499 30.5514 17.6628 30.5514C17.0319 30.5517 16.4153 30.3645 15.8911 30.0136C15.3669 29.6627 14.9588 29.1639 14.7188 28.5805C14.4787 27.9972 14.4175 27.3556 14.5429 26.7374C14.6683 26.1192 14.9746 25.5521 15.4229 25.1084C15.4977 25.0337 15.5542 24.9427 15.5879 24.8425C15.6216 24.7422 15.6316 24.6356 15.6172 24.5308C15.6027 24.4261 15.5642 24.3262 15.5046 24.2388C15.445 24.1515 15.366 24.0792 15.2737 24.0275C14.7571 23.7371 14.332 23.3082 14.0462 22.7891C13.7603 22.27 13.6252 21.6814 13.656 21.0896C13.6867 20.4978 13.8822 19.9264 14.2204 19.4397C14.5585 18.9531 15.0259 18.5706 15.5698 18.3354C15.6581 18.2971 15.7373 18.2405 15.8023 18.1695C15.8673 18.0985 15.9165 18.0146 15.9469 17.9232C15.9772 17.8318 15.9878 17.7351 15.9782 17.6393C15.9686 17.5435 15.9388 17.4509 15.8909 17.3674C15.6528 16.9535 15.511 16.4913 15.476 16.0151C15.4411 15.5388 15.514 15.0609 15.6892 14.6167C15.8644 14.1725 16.1374 13.7735 16.488 13.4493C16.8386 13.1252 17.2578 12.8842 17.7143 12.7443C17.8028 12.7172 17.8848 12.6724 17.9554 12.6126C18.0261 12.5529 18.0838 12.4794 18.1253 12.3967ZM14.8737 36.3525C15.493 36.3502 16.1025 36.198 16.6503 35.9091C17.1981 35.6201 17.6678 35.203 18.0194 34.6932C18.5021 35.3925 19.1736 35.9404 19.9556 36.273C20.7376 36.6056 21.598 36.7091 22.4366 36.5717V46.8529H14.4366V36.3248C14.5816 36.3425 14.7276 36.3518 14.8737 36.3525ZM7.12565 32.5307C7.12663 32.3466 7.14798 32.1632 7.18932 31.9838C7.21315 31.8792 7.21203 31.7705 7.18605 31.6665C7.16008 31.5625 7.10998 31.466 7.03981 31.3849C6.96964 31.3038 6.88137 31.2404 6.78214 31.1998C6.68291 31.1591 6.57551 31.1424 6.46862 31.151C6.40339 31.1564 6.33776 31.1615 6.27096 31.1615C5.78441 31.1619 5.30871 31.0177 4.90434 30.7471C4.49997 30.4765 4.18518 30.0918 3.99999 29.6419C3.8148 29.1919 3.76756 28.6971 3.86429 28.2202C3.96102 27.7434 4.19735 27.3061 4.54323 26.9639C4.6183 26.8895 4.67511 26.7987 4.70919 26.6987C4.74328 26.5987 4.75371 26.4921 4.73966 26.3874C4.72562 26.2826 4.68749 26.1826 4.62826 26.0951C4.56903 26.0076 4.49032 25.935 4.39831 25.883C3.99994 25.6591 3.67205 25.3283 3.45161 24.928C3.23118 24.5277 3.12697 24.0738 3.15072 23.6174C3.17448 23.161 3.32527 22.7204 3.58608 22.3451C3.84689 21.9698 4.20736 21.6749 4.62682 21.4936C4.71513 21.4553 4.79437 21.3988 4.85933 21.3278C4.9243 21.2568 4.97354 21.1729 5.00381 21.0816C5.03409 20.9902 5.04473 20.8935 5.03503 20.7978C5.02533 20.702 4.99551 20.6094 4.94753 20.526C4.76384 20.2068 4.65445 19.8504 4.6275 19.4832C4.60055 19.1159 4.65672 18.7473 4.79185 18.4048C4.92697 18.0622 5.13757 17.7546 5.40799 17.5046C5.6784 17.2547 6.00168 17.0689 6.35378 16.9611C6.44218 16.934 6.52416 16.8892 6.59478 16.8295C6.66539 16.7698 6.72316 16.6964 6.7646 16.6138C6.80604 16.5311 6.83029 16.4409 6.83588 16.3486C6.84148 16.2563 6.8283 16.1638 6.79714 16.0768C6.66406 15.7092 6.62095 15.3151 6.67141 14.9274C6.72187 14.5398 6.86443 14.1698 7.08718 13.8486C7.30992 13.5273 7.60636 13.264 7.9517 13.0808C8.29704 12.8976 8.68123 12.7998 9.07214 12.7955C9.18012 12.8023 9.28823 12.7845 9.38836 12.7435C9.48849 12.7025 9.57803 12.6393 9.65026 12.5588C9.71434 12.4839 9.76147 12.3961 9.78844 12.3013C9.81541 12.2065 9.82157 12.107 9.80651 12.0096C9.78564 11.8849 9.77467 11.7587 9.7737 11.6322C9.7737 10.9813 10.0323 10.357 10.4925 9.89678C10.9528 9.43651 11.5771 9.17793 12.228 9.17793C12.8789 9.17793 13.5032 9.43651 13.9634 9.89678C14.4237 10.357 14.6823 10.9813 14.6823 11.6322C14.6813 11.7587 14.6704 11.8849 14.6495 12.0096C14.637 12.1075 14.6456 12.2071 14.6749 12.3014C14.7041 12.3958 14.7533 12.4827 14.819 12.5564C14.9257 12.6765 15.0706 12.7561 15.2292 12.7818C14.6839 13.4051 14.3189 14.1652 14.1736 14.9805C14.0283 15.7957 14.1082 16.6352 14.4046 17.4084C13.7975 17.7921 13.29 18.3142 12.9236 18.9319C12.5572 19.5495 12.3424 20.2452 12.2966 20.9619C12.2509 21.6786 12.3756 22.3959 12.6605 23.0551C12.9454 23.7144 13.3825 24.2967 13.9358 24.7545C13.4803 25.4037 13.2024 26.1607 13.1296 26.9504C13.0568 27.7402 13.1917 28.5352 13.5208 29.2567C13.85 29.9783 14.362 30.6013 15.0061 31.064C15.6501 31.5267 16.404 31.8131 17.1928 31.8947C17.1901 31.9572 17.1885 32.0189 17.1885 32.0807C17.1886 32.3838 17.219 32.6863 17.2792 32.9834C17.1893 33.4672 16.9556 33.9126 16.6087 34.2616C16.2618 34.6105 15.8178 34.8468 15.3346 34.9396C14.8514 35.0324 14.3514 34.9774 13.8999 34.7817C13.4485 34.586 13.0665 34.2588 12.8038 33.8428C12.742 33.7458 12.6567 33.666 12.5559 33.6107C12.4551 33.5554 12.342 33.5265 12.227 33.5265C12.112 33.5265 11.9989 33.5554 11.8981 33.6107C11.7973 33.666 11.7121 33.7458 11.6503 33.8428C11.366 34.2919 10.9435 34.6366 10.4464 34.8248C9.9493 35.0131 9.40449 35.0347 8.89403 34.8864C8.38357 34.7382 7.9351 34.4281 7.61615 34.0029C7.29721 33.5776 7.12507 33.0603 7.12565 32.5287V32.5307ZM11.3835 46.8529V35.8986C11.6914 35.734 11.9751 35.5278 12.2268 35.2857C12.4781 35.5279 12.7616 35.7341 13.0694 35.8986V46.8533L11.3835 46.8529ZM23.8026 46.8529V36.133C24.2477 35.9068 24.6523 35.6086 25.0003 35.2506C25.3478 35.6085 25.7521 35.9067 26.1967 36.133V46.8545L23.8026 46.8529ZM36.93 46.8529V35.8986C37.2381 35.7342 37.5221 35.528 37.7737 35.2857C38.025 35.5277 38.3084 35.7339 38.6159 35.8986V46.8533L36.93 46.8529Z" fill="black"/>
<path d="M28.1451 12.9495C28.0898 13.122 28.1052 13.3093 28.1879 13.4705C28.2706 13.6316 28.4138 13.7533 28.5862 13.8089C28.6539 13.831 28.7247 13.8422 28.7959 13.8421C28.9406 13.842 29.0815 13.7961 29.1984 13.7109C29.3153 13.6257 29.4023 13.5056 29.4467 13.3679C29.5943 12.9604 29.6131 12.5174 29.5004 12.0989C29.3877 11.6804 29.1489 11.3067 28.8166 11.0284C28.6843 10.9045 28.5081 10.8382 28.3269 10.8441C28.1456 10.8501 27.9742 10.9277 27.8502 11.0601C27.7263 11.1924 27.66 11.3686 27.6659 11.5498C27.6718 11.7311 27.7495 11.9025 27.8819 12.0265C28.0241 12.1276 28.1276 12.274 28.1755 12.4418C28.2233 12.6096 28.2126 12.7887 28.1451 12.9495Z" fill="black"/>
<path d="M29.4692 27.8796H29.4665C29.3767 27.88 29.2879 27.898 29.2051 27.9327C29.1223 27.9674 29.0471 28.0181 28.9839 28.0818C28.9207 28.1455 28.8706 28.2211 28.8366 28.3042C28.8026 28.3872 28.7852 28.4762 28.7856 28.566C28.7887 29.2515 28.7192 29.3261 28.3856 29.6839C28.262 29.8166 28.1962 29.9929 28.2026 30.1741C28.209 30.3553 28.2871 30.5265 28.4198 30.6501C28.5524 30.7737 28.7288 30.8396 28.91 30.8332C29.0912 30.8268 29.2624 30.7486 29.386 30.616C29.9559 30.0046 30.1575 29.6003 30.1528 28.5601C30.152 28.3793 30.0796 28.2063 29.9515 28.0788C29.8234 27.9512 29.65 27.8796 29.4692 27.8796Z" fill="black"/>
<path d="M29.4608 15.2669C29.3591 15.417 29.3213 15.6013 29.3556 15.7793C29.3899 15.9573 29.4935 16.1144 29.6436 16.2161C29.6533 16.2227 30.6178 16.9005 30.715 17.8587C30.7467 18.2418 30.697 18.6273 30.5691 18.9899C30.4412 19.3524 30.238 19.6838 29.9729 19.9622C29.8473 20.088 29.7756 20.2577 29.7731 20.4355C29.7705 20.6132 29.8372 20.7849 29.9591 20.9143C30.081 21.0437 30.2484 21.1206 30.426 21.1286C30.6035 21.1367 30.7773 21.0753 30.9104 20.9575C31.3256 20.5334 31.6445 20.0247 31.8452 19.4661C32.0459 18.9075 32.1237 18.3122 32.0732 17.7208C31.9103 16.1192 30.4693 15.1255 30.4084 15.0841C30.2584 14.9829 30.0744 14.9454 29.8968 14.9797C29.7192 15.0139 29.5624 15.1172 29.4608 15.2669Z" fill="black"/>
</svg>
