<svg width="65" height="65" viewBox="0 0 65 65" fill="none" xmlns="http://www.w3.org/2000/svg">
<g clip-path="url(#clip0)">
<path d="M51.3706 40.2652C50.0399 38.8796 48.4348 38.1388 46.7337 38.1388C45.0463 38.1388 43.4275 38.8659 42.0419 40.2515L37.7068 44.5729C37.3501 44.3808 36.9934 44.2025 36.6504 44.0241C36.1565 43.7772 35.6901 43.544 35.2923 43.297C31.2315 40.7179 27.5412 37.3568 24.0018 33.008C22.2869 30.8405 21.1346 29.0159 20.2977 27.1639C21.4227 26.135 22.4653 25.0649 23.4805 24.036C23.8646 23.6519 24.2487 23.254 24.6328 22.8699C27.5138 19.989 27.5138 16.2575 24.6328 13.3766L20.8876 9.63137C20.4624 9.20609 20.0234 8.76709 19.6118 8.32809C18.7887 7.47753 17.9244 6.59954 17.0327 5.77641C15.702 4.45942 14.1106 3.75977 12.4369 3.75977C10.7632 3.75977 9.14443 4.45942 7.77256 5.77641C7.75885 5.79013 7.75885 5.79013 7.74513 5.80385L3.08077 10.5094C1.32478 12.2654 0.323313 14.4055 0.103814 16.8886C-0.225435 20.8944 0.954373 24.6259 1.85981 27.0678C4.08224 33.0629 7.40216 38.619 12.3546 44.5729C18.3634 51.7478 25.5931 57.4136 33.8518 61.4057C37.0071 62.9011 41.2187 64.6708 45.9243 64.9726C46.2123 64.9863 46.5142 65 46.7885 65C49.9576 65 52.619 63.8614 54.7042 61.5978C54.7179 61.5703 54.7454 61.5566 54.7591 61.5292C55.4725 60.6649 56.2956 59.8829 57.1599 59.0461C57.7498 58.4836 58.3534 57.8937 58.9433 57.2764C60.3014 55.8634 61.0148 54.2171 61.0148 52.5297C61.0148 50.8286 60.2877 49.1961 58.9021 47.8242L51.3706 40.2652ZM56.2819 54.711C56.2682 54.711 56.2682 54.7247 56.2819 54.711C55.7468 55.2872 55.1981 55.8085 54.6082 56.3847C53.7165 57.2352 52.811 58.127 51.9605 59.1284C50.5749 60.61 48.9424 61.3097 46.8022 61.3097C46.5965 61.3097 46.377 61.3097 46.1712 61.296C42.0967 61.0353 38.3104 59.4439 35.4706 58.0858C27.7058 54.3269 20.8876 48.9903 15.2218 42.227C10.5437 36.5886 7.41588 31.3755 5.34436 25.7783C4.06852 22.3623 3.60208 19.7009 3.80786 17.1904C3.94505 15.5853 4.56239 14.2546 5.70104 13.1159L10.3791 8.43784C11.0513 7.80678 11.7647 7.46381 12.4644 7.46381C13.3286 7.46381 14.0283 7.98512 14.4673 8.42412C14.481 8.43784 14.4947 8.45156 14.5084 8.46528C15.3453 9.24724 16.141 10.0566 16.9778 10.9209C17.4031 11.3599 17.8421 11.7989 18.2811 12.2516L22.0263 15.9968C23.4805 17.451 23.4805 18.7955 22.0263 20.2496C21.6284 20.6475 21.2443 21.0453 20.8465 21.4294C19.6941 22.6093 18.5966 23.7067 17.4031 24.7768C17.3757 24.8042 17.3482 24.818 17.3345 24.8454C16.1547 26.0252 16.3742 27.1776 16.6211 27.9595C16.6348 28.0007 16.6486 28.0419 16.6623 28.083C17.6363 30.4426 19.0082 32.6651 21.0934 35.3128L21.1071 35.3265C24.8935 39.9908 28.8856 43.6263 33.2893 46.4112C33.8518 46.7679 34.428 47.056 34.9767 47.3303C35.4706 47.5773 35.937 47.8105 36.3349 48.0574C36.3898 48.0849 36.4446 48.126 36.4995 48.1535C36.9659 48.3867 37.4049 48.4964 37.8577 48.4964C38.9963 48.4964 39.7097 47.7831 39.9429 47.5498L44.6347 42.858C45.1011 42.3916 45.8419 41.8291 46.7062 41.8291C47.5568 41.8291 48.2564 42.3642 48.6817 42.8306C48.6954 42.8443 48.6954 42.8443 48.7091 42.858L56.2682 50.417C57.6812 51.8164 57.6812 53.2568 56.2819 54.711Z" fill="#019A38"/>
<path d="M35.1275 15.4618C38.7218 16.0654 41.9868 17.7665 44.5934 20.3731C47.1999 22.9797 48.8873 26.2447 49.5047 29.839C49.6556 30.7444 50.4375 31.3755 51.3292 31.3755C51.439 31.3755 51.535 31.3618 51.6448 31.3481C52.66 31.1834 53.3322 30.2231 53.1676 29.2079C52.4267 24.8591 50.3689 20.8944 47.2274 17.7528C44.0858 14.6113 40.1211 12.5534 35.7723 11.8126C34.7571 11.648 33.8105 12.3202 33.6321 13.3217C33.4538 14.3232 34.1123 15.2972 35.1275 15.4618Z" fill="#019A38"/>
<path d="M64.9247 28.6731C63.7038 21.512 60.329 14.9956 55.1433 9.80991C49.9576 4.62424 43.4412 1.24944 36.2801 0.0284792C35.2786 -0.149864 34.332 0.536071 34.1537 1.53754C33.9891 2.55272 34.6613 3.49931 35.6765 3.67765C42.0694 4.76143 47.8998 7.79326 52.5367 12.4165C57.1737 17.0534 60.1918 22.8838 61.2756 29.2767C61.4265 30.1822 62.2084 30.8132 63.1001 30.8132C63.2099 30.8132 63.3059 30.7995 63.4157 30.7858C64.4171 30.6349 65.1031 29.6746 64.9247 28.6731Z" fill="#019A38"/>
</g>
<defs>
<clipPath id="clip0">
<rect width="65" height="65" fill="white"/>
</clipPath>
</defs>
</svg>
