<svg width="50" height="36" viewBox="0 0 50 36" fill="none" xmlns="http://www.w3.org/2000/svg">
<path d="M48.0512 3.42667C46.2463 1.28116 42.9141 0.406067 36.5502 0.406067H13.4493C6.93984 0.406067 3.55107 1.33771 1.75303 3.62189C0 5.84884 0 9.13029 0 13.672V22.3282C0 31.1268 2.07998 35.5941 13.4493 35.5941H36.5503C42.069 35.5941 45.127 34.8218 47.1055 32.9284C49.1344 30.9868 50 27.8166 50 22.3282V13.672C50 8.88243 49.8644 5.58165 48.0512 3.42667ZM32.1002 19.1951L21.6102 24.6776C21.3757 24.8001 21.1191 24.861 20.8631 24.861C20.573 24.861 20.2837 24.7829 20.0274 24.6277C19.5448 24.3354 19.2502 23.8122 19.2502 23.2481V12.3184C19.2502 11.7552 19.544 11.2325 20.0257 10.94C20.5074 10.6474 21.1066 10.6274 21.6064 10.887L32.0965 16.3341C32.6302 16.6111 32.9653 17.1621 32.9661 17.7633C32.9668 18.3651 32.6331 18.9168 32.1002 19.1951Z" fill="#D7143A"/>
</svg>
